G70*
%FSLAX55Y55*%
%ADD11C,0.01000*%
%ADD12C,0.00800*%
%ADD13C,0.02000*%
%ADD14R,0.05118X0.04724*%
%ADD15R,0.05512X0.08268*%
%ADD16R,0.03394X0.04094*%
%ADD17R,0.02756X0.02165*%
%ADD18O,0.07494X0.01406*%
%ADD19O,0.07494X0.01394*%
%ADD20O,0.01406X0.07494*%
%ADD21O,0.01394X0.07494*%
%ADD22R,0.07394X0.07394*%
%ADD23C,0.07394*%
%ADD24R,0.04724X0.05118*%
%ADD25R,0.04094X0.03394*%
%ADD26C,0.06594*%
%ADD27R,0.07394X0.07394*%
%ADD28R,0.06693X0.09055*%
%ADD29O,0.04134X0.01575*%
%ADD30O,0.01575X0.04134*%
%ADD31O,0.01994X0.06394*%
%ADD32O,0.01194X0.06394*%
%ADD33O,0.06394X0.01994*%
%ADD34O,0.06394X0.01194*%
%ADD35R,0.03394X0.01994*%
%ADD36R,0.02394X0.09449*%
%ADD37R,0.08268X0.14173*%
%ADD38R,0.24803X0.05118*%
%ADD39C,0.04331*%
%ADD40C,0.00197*%
%ADD41R,0.02165X0.02756*%
%ADD42R,0.08898X0.06378*%
%AMUSER43*
21, 1, 0.05118, 0.04724, 0.0, 0.0, 225.000*%
%ADD43USER43*%
%AMUSER44*
21, 1, 0.05118, 0.04724, 0.0, 0.0, 135.000*%
%ADD44USER44*%
%ADD45R,0.04394X0.03894*%
%ADD46R,0.04724X0.06299*%
%ADD47C,0.01500*%
%ADD48C,0.02480*%
%ADD49C,0.01575*%
D11*
X285882Y503057D02*
X545725Y503057D01*
X545725Y884947*
X285882Y884947*
X285882Y503057*
D12*
G36*
X685804Y86797D02*
X708758Y86807D01*
X709804Y88897*
X700804Y97897*
X699604Y100597*
X699604Y103897*
X699904Y105097*
X701104Y107197*
X702304Y108397*
X703804Y109297*
X705604Y109897*
X707704Y110197*
X750304Y110197*
X747904Y103897*
X747604Y103597*
X737704Y103597*
X728104Y80797*
X721204Y80797*
X730504Y102697*
X730504Y103597*
X706804Y103597*
X706204Y103297*
X705904Y102697*
X705904Y101797*
X706204Y101497*
X714904Y93097*
X715804Y91597*
X716104Y90097*
X716404Y89797*
X716404Y87097*
G75*
G02X711604Y80797I-08949J01839*
G01X683404Y80797*
X683404Y81397*
X685504Y86497*
X685804Y86797*
G37*
X708758Y86807*
X709804Y88897*
X700804Y97897*
X699604Y100597*
X699604Y103897*
X699904Y105097*
X701104Y107197*
X702304Y108397*
X703804Y109297*
X705604Y109897*
X707704Y110197*
X750304Y110197*
X747904Y103897*
X747604Y103597*
X737704Y103597*
X728104Y80797*
X721204Y80797*
X730504Y102697*
X730504Y103597*
X706804Y103597*
X706204Y103297*
X705904Y102697*
X705904Y101797*
X706204Y101497*
X714904Y93097*
X715804Y91597*
X716104Y90097*
X716404Y89797*
X716404Y87097*
G75*
G02X711604Y80797I-08949J01839*
G01X683404Y80797*
X683404Y81397*
X685504Y86497*
X685804Y86797*
X202051Y49689D02*
X632051Y49689D01*
D13*
X197051Y129689D02*
X637051Y129689D01*
X67050Y29689D02*
X187051Y29689D01*
D12*
X202051Y84689D02*
X632051Y84689D01*
D13*
X197051Y119689D02*
X637051Y119689D01*
D12*
X684004Y80197D02*
X683404Y80797D01*
X683404Y81397*
X695404Y110497*
G75*
G02X702004Y115597I08543J-04235*
G01X751804Y115597*
X752104Y115297*
X752104Y114097*
X740104Y85297*
G75*
G02X733504Y80197I-08825J04600*
G01X684004Y80197*
D13*
X637051Y129689D02*
X637051Y169689D01*
X57051Y179689D02*
X807051Y179689D01*
X67050Y124689D02*
X187051Y124689D01*
X67050Y169689D02*
X187051Y169689D01*
X197051Y169689D02*
X637051Y169689D01*
X197051Y29689D02*
X197051Y119689D01*
X197051Y129689D02*
X197051Y169689D01*
X67050Y29689D02*
X67050Y169689D01*
X637051Y29689D02*
X637051Y119689D01*
X647051Y169689D02*
X797051Y169689D01*
X647051Y29689D02*
X797051Y29689D01*
X19649Y19689D02*
X19649Y1149611D01*
X19649Y19689D02*
X807051Y19689D01*
X57051Y19689D02*
X57051Y179689D01*
X187051Y29689D02*
X187051Y169689D01*
X647051Y29689D02*
X647051Y169689D01*
X797051Y29689D02*
X797051Y169689D01*
X67050Y79689D02*
X187051Y79689D01*
X807051Y19689D02*
X807051Y1149611D01*
X197051Y29689D02*
X637051Y29689D01*
X19649Y1149611D02*
X807051Y1149611D01*
D14*
X514804Y761451D03*
X514804Y768144D03*
D15*
X457477Y748648D03*
X479130Y748648D03*
X479130Y761246D03*
X457477Y761246D03*
D16*
X395804Y844809D03*
X395804Y840085D03*
X348304Y809159D03*
X348304Y804435D03*
D14*
X524804Y761451D03*
X524804Y768144D03*
D17*
X326304Y841797D03*
X335304Y841797D03*
D18*
X388481Y818274D03*
D19*
X388481Y816305D03*
X388481Y814337D03*
X388481Y812368D03*
X388481Y810400D03*
X388481Y808431D03*
X388481Y806463D03*
X388481Y804494D03*
X388481Y802526D03*
X388481Y800557D03*
X388481Y798589D03*
D18*
X388481Y796620D03*
D20*
X394977Y790124D03*
D21*
X396945Y790124D03*
X398914Y790124D03*
X400882Y790124D03*
X402851Y790124D03*
X404819Y790124D03*
X406788Y790124D03*
X408756Y790124D03*
X410725Y790124D03*
X412693Y790124D03*
X414662Y790124D03*
D20*
X416630Y790124D03*
D18*
X423126Y796620D03*
D19*
X423126Y798589D03*
X423126Y800557D03*
X423126Y802526D03*
X423126Y804494D03*
X423126Y806463D03*
X423126Y808431D03*
X423126Y810400D03*
X423126Y812368D03*
X423126Y814337D03*
X423126Y816305D03*
D18*
X423127Y818274D03*
D20*
X416630Y824770D03*
D21*
X414662Y824770D03*
X412693Y824770D03*
X410725Y824770D03*
X408756Y824770D03*
X406788Y824770D03*
X404819Y824770D03*
X402851Y824770D03*
X400882Y824770D03*
X398914Y824770D03*
X396945Y824770D03*
D20*
X394977Y824770D03*
D22*
X310804Y841797D03*
D23*
X310804Y831797D03*
X310804Y821797D03*
X310804Y811797D03*
X310804Y801797D03*
X310804Y791797D03*
D14*
X445304Y746144D03*
X445304Y739451D03*
X503804Y774951D03*
X503804Y781644D03*
D16*
X365804Y646659D03*
X365804Y641935D03*
D14*
X355804Y720794D03*
X355804Y714101D03*
D16*
X348304Y819435D03*
X348304Y824159D03*
D24*
X416891Y640733D03*
X410198Y640733D03*
D25*
X395666Y832447D03*
X390941Y832447D03*
D14*
X358304Y640951D03*
X358304Y647644D03*
D26*
X363323Y804911D03*
X363323Y824911D03*
D25*
X323441Y801797D03*
X328166Y801797D03*
D22*
X310804Y871797D03*
D23*
X310804Y861797D03*
D16*
X420804Y844809D03*
X420804Y840085D03*
X390804Y844809D03*
X390804Y840085D03*
D24*
X416891Y648233D03*
X410198Y648233D03*
D16*
X415804Y844809D03*
X415804Y840085D03*
D25*
X323441Y811797D03*
X328166Y811797D03*
X535166Y779297D03*
X530441Y779297D03*
D16*
X430804Y819809D03*
X430804Y815085D03*
X458304Y642585D03*
X458304Y647309D03*
D27*
X340804Y784297D03*
D23*
X350804Y784297D03*
D24*
X457457Y769947D03*
X464150Y769947D03*
D25*
X323441Y831797D03*
X328166Y831797D03*
D14*
X430804Y739451D03*
X430804Y746144D03*
D28*
X370193Y756797D03*
X356414Y756797D03*
D16*
X405804Y844809D03*
X405804Y840085D03*
X410804Y844809D03*
X410804Y840085D03*
D25*
X440941Y762447D03*
X445666Y762447D03*
D16*
X400804Y844809D03*
X400804Y840085D03*
D25*
X323441Y791797D03*
X328166Y791797D03*
D14*
X450804Y660794D03*
X450804Y654101D03*
X333304Y864101D03*
X333304Y870794D03*
D25*
X328441Y854947D03*
X333166Y854947D03*
D16*
X348304Y754159D03*
X348304Y749435D03*
X358304Y656935D03*
X358304Y661659D03*
D14*
X363304Y720644D03*
X363304Y713951D03*
D29*
X521528Y776423D03*
X521528Y779573D03*
X521528Y782722D03*
X521528Y785872D03*
X521528Y789022D03*
X521528Y792171D03*
D30*
X516804Y792959D03*
D29*
X512079Y792171D03*
X512079Y789022D03*
X512079Y785872D03*
X512079Y782722D03*
X512079Y779573D03*
X512079Y776423D03*
D30*
X516804Y775636D03*
D25*
X340941Y841797D03*
X345666Y841797D03*
D14*
X450804Y648294D03*
X450804Y641601D03*
D22*
X310804Y751797D03*
D23*
X320804Y751797D03*
X310804Y741797D03*
X320804Y741797D03*
X310804Y731797D03*
X320804Y731797D03*
X310804Y721797D03*
X320804Y721797D03*
X310804Y711797D03*
X320804Y711797D03*
X310804Y701797D03*
X320804Y701797D03*
X310804Y691797D03*
X320804Y691797D03*
X310804Y681797D03*
X320804Y681797D03*
X310804Y671797D03*
X320804Y671797D03*
X310804Y661797D03*
X320804Y661797D03*
X310804Y651797D03*
X320804Y651797D03*
X310804Y641797D03*
X320804Y641797D03*
X310804Y631797D03*
X320804Y631797D03*
X310804Y621797D03*
X320804Y621797D03*
X310804Y611797D03*
X320804Y611797D03*
X310804Y601797D03*
X320804Y601797D03*
X310804Y591797D03*
X320804Y591797D03*
X310804Y581797D03*
X320804Y581797D03*
X310804Y571797D03*
X320804Y571797D03*
X310804Y561797D03*
X320804Y561797D03*
X310804Y551797D03*
X320804Y551797D03*
X310804Y541797D03*
X320804Y541797D03*
X310804Y531797D03*
X320804Y531797D03*
X310804Y521797D03*
X320804Y521797D03*
X310804Y511797D03*
X320804Y511797D03*
D14*
X383304Y760144D03*
X383304Y753451D03*
D22*
X473304Y817447D03*
D23*
X473304Y807447D03*
X473304Y797447D03*
X473304Y787447D03*
D22*
X310804Y766797D03*
D23*
X310804Y776797D03*
D24*
X517457Y801297D03*
X524150Y801297D03*
D14*
X383304Y745144D03*
X383304Y738451D03*
D29*
X411458Y627071D03*
X411458Y624512D03*
X411458Y621953D03*
X411458Y619394D03*
D30*
X414706Y616146D03*
X417265Y616146D03*
X419824Y616146D03*
X422383Y616146D03*
D29*
X425631Y619394D03*
X425631Y621953D03*
X425631Y624512D03*
X425631Y627071D03*
D30*
X422383Y630319D03*
X419824Y630319D03*
X417265Y630319D03*
X414706Y630319D03*
D16*
X340815Y865085D03*
X340815Y869809D03*
D22*
X510804Y751797D03*
D23*
X520804Y751797D03*
X510804Y741797D03*
X520804Y741797D03*
X510804Y731797D03*
X520804Y731797D03*
X510804Y721797D03*
X520804Y721797D03*
X510804Y711797D03*
X520804Y711797D03*
X510804Y701797D03*
X520804Y701797D03*
X510804Y691797D03*
X520804Y691797D03*
X510804Y681797D03*
X520804Y681797D03*
X510804Y671797D03*
X520804Y671797D03*
X510804Y661797D03*
X520804Y661797D03*
X510804Y651797D03*
X520804Y651797D03*
X510804Y641797D03*
X520804Y641797D03*
X510804Y631797D03*
X520804Y631797D03*
X510804Y621797D03*
X520804Y621797D03*
X510804Y611797D03*
X520804Y611797D03*
X510804Y601797D03*
X520804Y601797D03*
X510804Y591797D03*
X520804Y591797D03*
X510804Y581797D03*
X520804Y581797D03*
X510804Y571797D03*
X520804Y571797D03*
X510804Y561797D03*
X520804Y561797D03*
X510804Y551797D03*
X520804Y551797D03*
X510804Y541797D03*
X520804Y541797D03*
X510804Y531797D03*
X520804Y531797D03*
X510804Y521797D03*
X520804Y521797D03*
X510804Y511797D03*
X520804Y511797D03*
D31*
X438595Y725507D03*
D32*
X436233Y725507D03*
X434264Y725507D03*
X432296Y725507D03*
X430327Y725507D03*
X428359Y725507D03*
X426390Y725507D03*
X424421Y725507D03*
X422453Y725507D03*
X420484Y725507D03*
X418516Y725507D03*
X416547Y725507D03*
X414579Y725507D03*
X412610Y725507D03*
X410642Y725507D03*
X408673Y725507D03*
X406705Y725507D03*
X404736Y725507D03*
X402768Y725507D03*
X400799Y725507D03*
X398831Y725507D03*
X396862Y725507D03*
X394894Y725507D03*
X392925Y725507D03*
D31*
X390563Y725507D03*
D33*
X383280Y718223D03*
D34*
X383280Y715861D03*
X383280Y713893D03*
X383280Y711924D03*
X383280Y709956D03*
X383280Y707987D03*
X383280Y706019D03*
X383280Y704050D03*
X383280Y702081D03*
X383280Y700113D03*
X383280Y698144D03*
X383280Y696176D03*
X383280Y694207D03*
X383280Y692239D03*
X383280Y690270D03*
X383280Y688302D03*
X383280Y686333D03*
X383280Y684365D03*
X383280Y682396D03*
X383280Y680428D03*
X383280Y678459D03*
X383280Y676491D03*
X383280Y674522D03*
X383280Y672554D03*
D33*
X383280Y670192D03*
D31*
X390563Y662908D03*
D32*
X392925Y662908D03*
X394894Y662908D03*
X396862Y662908D03*
X398831Y662908D03*
X400799Y662908D03*
X402768Y662908D03*
X404736Y662908D03*
X406705Y662908D03*
X408673Y662908D03*
X410642Y662908D03*
X412610Y662908D03*
X414579Y662908D03*
X416547Y662908D03*
X418516Y662908D03*
X420484Y662908D03*
X422453Y662908D03*
X424421Y662908D03*
X426390Y662908D03*
X428359Y662908D03*
X430327Y662908D03*
X432296Y662908D03*
X434264Y662908D03*
X436233Y662908D03*
D31*
X438595Y662908D03*
D33*
X445878Y670192D03*
D34*
X445878Y672554D03*
X445878Y674522D03*
X445878Y676491D03*
X445878Y678459D03*
X445878Y680428D03*
X445878Y682396D03*
X445878Y684365D03*
X445878Y686333D03*
X445878Y688302D03*
X445878Y690270D03*
X445878Y692239D03*
X445878Y694207D03*
X445878Y696176D03*
X445878Y698144D03*
X445878Y700113D03*
X445878Y702081D03*
X445878Y704050D03*
X445878Y706019D03*
X445878Y707987D03*
X445878Y709956D03*
X445878Y711924D03*
X445878Y713893D03*
X445878Y715861D03*
D33*
X445878Y718223D03*
D22*
X520804Y821797D03*
D23*
X520804Y811797D03*
D24*
X452422Y836785D03*
X459115Y836785D03*
D35*
X461083Y860561D03*
X461083Y864301D03*
X461083Y868041D03*
X450453Y868041D03*
X450453Y860561D03*
D24*
X459115Y854285D03*
X452422Y854285D03*
D14*
X478304Y865144D03*
X478304Y858451D03*
D24*
X459115Y874317D03*
X452422Y874317D03*
D14*
X470792Y865144D03*
X470792Y858451D03*
D17*
X456276Y846774D03*
X465276Y846774D03*
D16*
X495804Y846659D03*
X495804Y841935D03*
X500804Y846659D03*
X500804Y841935D03*
X510804Y846659D03*
X510804Y841935D03*
X505804Y846659D03*
X505804Y841935D03*
D36*
X422092Y858470D03*
X418942Y858470D03*
X415792Y858470D03*
X412642Y858470D03*
X409492Y858470D03*
D37*
X396699Y858274D03*
X396699Y877959D03*
X434888Y858274D03*
X434888Y877959D03*
D38*
X415804Y882486D03*
D39*
X424442Y869297D03*
X407142Y869297D03*
D40*
G36*
X418344Y871092D02*
X418343Y871056D01*
X418341Y871024*
X418333Y870973*
X418317Y870934*
X418282Y870892*
X418245Y870860*
X418180Y870815*
X418152Y870798*
X418123Y870781*
X418092Y870764*
X418058Y870747*
X418022Y870731*
X417985Y870714*
X417955Y870702*
X417924Y870691*
X417893Y870680*
X417860Y870669*
X417826Y870659*
X417791Y870649*
X417755Y870640*
X417718Y870631*
X417687Y870625*
X417656Y870619*
X417625Y870614*
X417593Y870609*
X417560Y870606*
X417527Y870603*
X417493Y870600*
X417459Y870599*
X417424Y870598*
X417388Y870597*
X417360Y870597*
X417333Y870598*
X417305Y870599*
X417278Y870601*
X417251Y870602*
X417225Y870605*
X417198Y870608*
X417172Y870611*
X417146Y870614*
X417120Y870619*
X417095Y870623*
X417070Y870628*
X417045Y870633*
X417020Y870639*
X416995Y870645*
X416971Y870652*
X416947Y870659*
X416924Y870666*
X416900Y870674*
X416877Y870683*
X416854Y870691*
X416831Y870700*
X416805Y870712*
X416780Y870723*
X416754Y870736*
X416730Y870748*
X416705Y870762*
X416681Y870775*
X416658Y870790*
X416635Y870805*
X416612Y870820*
X416590Y870836*
X416568Y870853*
X416546Y870870*
X416525Y870888*
X416505Y870906*
X416484Y870925*
X416464Y870944*
X416445Y870964*
X416426Y870984*
X416407Y871005*
X416389Y871027*
X416371Y871049*
X416354Y871071*
X416337Y871094*
X416321Y871118*
X416305Y871142*
X416289Y871167*
X416274Y871192*
X416260Y871217*
X416246Y871244*
X416232Y871270*
X416219Y871298*
X416206Y871325*
X416193Y871354*
X416181Y871383*
X416170Y871412*
X416159Y871442*
X416148Y871472*
X416138Y871503*
X416129Y871531*
X416121Y871560*
X416113Y871590*
X416106Y871619*
X416098Y871649*
X416092Y871680*
X416086Y871711*
X416080Y871742*
X416074Y871773*
X416070Y871806*
X416065Y871838*
X416061Y871871*
X416057Y871904*
X416054Y871938*
X416051Y871972*
X416049Y872007*
X416047Y872041*
X416046Y872077*
X416045Y872113*
X416044Y872149*
X416044Y872177*
X416044Y872206*
X416045Y872234*
X416046Y872262*
X416047Y872289*
X416048Y872317*
X416049Y872344*
X416051Y872371*
X416053Y872397*
X416055Y872423*
X416057Y872449*
X416060Y872475*
X416063Y872501*
X416066Y872526*
X416069Y872551*
X416072Y872575*
X416076Y872599*
X416080Y872624*
X416084Y872647*
X416089Y872671*
X416093Y872694*
X416098Y872717*
X416103Y872740*
X416108Y872762*
X416114Y872784*
X416120Y872806*
X416126Y872828*
X416132Y872849*
X416138Y872870*
X416145Y872891*
X416154Y872918*
X416163Y872944*
X416173Y872970*
X416183Y872996*
X416193Y873021*
X416203Y873046*
X416214Y873071*
X416225Y873095*
X416237Y873119*
X416248Y873142*
X416260Y873166*
X416273Y873188*
X416286Y873211*
X416298Y873233*
X416312Y873255*
X416325Y873276*
X416339Y873297*
X416354Y873318*
X416368Y873338*
X416383Y873358*
X416398Y873378*
X416413Y873397*
X416429Y873416*
X416448Y873437*
X416467Y873458*
X416486Y873478*
X416505Y873498*
X416525Y873517*
X416546Y873536*
X416566Y873554*
X416587Y873572*
X416609Y873589*
X416630Y873605*
X416652Y873622*
X416675Y873637*
X416698Y873652*
X416721Y873667*
X416744Y873681*
X416768Y873695*
X416793Y873708*
X416817Y873720*
X416842Y873732*
X416868Y873744*
X416893Y873754*
X416919Y873764*
X416945Y873774*
X416971Y873783*
X416997Y873791*
X417024Y873799*
X417050Y873807*
X417077Y873814*
X417103Y873820*
X417130Y873826*
X417157Y873831*
X417184Y873836*
X417211Y873841*
X417238Y873845*
X417266Y873848*
X417293Y873851*
X417321Y873853*
X417349Y873855*
X417377Y873856*
X417405Y873857*
X417433Y873857*
X417463Y873857*
X417493Y873856*
X417523Y873854*
X417553Y873852*
X417582Y873850*
X417612Y873846*
X417641Y873843*
X417670Y873838*
X417701Y873832*
X417731Y873826*
X417760Y873820*
X417789Y873814*
X417816Y873807*
X417842Y873800*
X417868Y873794*
X417892Y873787*
X417915Y873780*
X417938Y873772*
X417969Y873762*
X417999Y873750*
X418028Y873739*
X418055Y873727*
X418082Y873714*
X418108Y873701*
X418133Y873687*
X418160Y873672*
X418184Y873657*
X418206Y873643*
X418224Y873631*
X418239Y873619*
X418252Y873608*
X418271Y873589*
X418285Y873573*
X418294Y873560*
X418310Y873519*
X418320Y873463*
X418323Y873428*
X418324Y873386*
X418323Y873354*
X418321Y873326*
X418319Y873302*
X418313Y873270*
X418304Y873243*
X418281Y873208*
X418247Y873197*
X418206Y873209*
X418151Y873244*
X418118Y873268*
X418081Y873293*
X418039Y873320*
X417993Y873347*
X417959Y873366*
X417923Y873384*
X417885Y873401*
X417845Y873418*
X417802Y873434*
X417757Y873450*
X417721Y873461*
X417684Y873471*
X417645Y873479*
X417604Y873485*
X417561Y873491*
X417517Y873494*
X417471Y873496*
X417423Y873497*
X417385Y873496*
X417348Y873494*
X417311Y873491*
X417275Y873486*
X417239Y873480*
X417204Y873472*
X417169Y873463*
X417136Y873452*
X417103Y873440*
X417070Y873427*
X417037Y873410*
X417004Y873392*
X416973Y873373*
X416942Y873353*
X416913Y873333*
X416885Y873311*
X416859Y873289*
X416833Y873265*
X416809Y873241*
X416785Y873216*
X416763Y873189*
X416742Y873162*
X416720Y873132*
X416699Y873100*
X416679Y873067*
X416660Y873033*
X416642Y872997*
X416624Y872961*
X416608Y872923*
X416592Y872884*
X416578Y872844*
X416564Y872803*
X416554Y872768*
X416545Y872732*
X416537Y872697*
X416529Y872661*
X416522Y872625*
X416515Y872589*
X416509Y872553*
X416504Y872516*
X416499Y872480*
X416495Y872443*
X416491Y872406*
X416489Y872369*
X416486Y872331*
X416485Y872293*
X416484Y872256*
X416484Y872217*
X416484Y872182*
X416485Y872147*
X416486Y872113*
X416487Y872079*
X416489Y872045*
X416492Y872012*
X416495Y871980*
X416498Y871948*
X416502Y871917*
X416506Y871886*
X416511Y871855*
X416516Y871825*
X416522Y871795*
X416528Y871766*
X416535Y871738*
X416542Y871710*
X416549Y871682*
X416559Y871647*
X416571Y871612*
X416582Y871579*
X416595Y871546*
X416608Y871515*
X416622Y871484*
X416636Y871454*
X416651Y871425*
X416667Y871397*
X416683Y871370*
X416700Y871343*
X416718Y871318*
X416737Y871293*
X416762Y871263*
X416788Y871234*
X416815Y871206*
X416843Y871181*
X416873Y871156*
X416903Y871133*
X416935Y871112*
X416968Y871092*
X417002Y871074*
X417037Y871057*
X417073Y871042*
X417110Y871028*
X417148Y871016*
X417187Y871006*
X417227Y870997*
X417267Y870990*
X417309Y870984*
X417352Y870980*
X417395Y870978*
X417440Y870977*
X417477Y870978*
X417514Y870979*
X417549Y870981*
X417584Y870985*
X417618Y870989*
X417651Y870994*
X417682Y871000*
X417713Y871007*
X417743Y871015*
X417772Y871024*
X417807Y871035*
X417840Y871047*
X417873Y871060*
X417903Y871073*
X417933Y871086*
X417961Y871099*
X417988Y871113*
X418014Y871127*
X418042Y871143*
X418068Y871159*
X418093Y871174*
X418117Y871189*
X418139Y871203*
X418159Y871217*
X418178Y871231*
X418199Y871245*
X418218Y871257*
X418236Y871266*
X418252Y871272*
X418266Y871276*
X418279Y871277*
X418309Y871270*
X418329Y871242*
X418340Y871185*
X418343Y871143*
X418344Y871092*
G37*
X418343Y871056*
X418341Y871024*
X418333Y870973*
X418317Y870934*
X418282Y870892*
X418245Y870860*
X418180Y870815*
X418152Y870798*
X418123Y870781*
X418092Y870764*
X418058Y870747*
X418022Y870731*
X417985Y870714*
X417955Y870702*
X417924Y870691*
X417893Y870680*
X417860Y870669*
X417826Y870659*
X417791Y870649*
X417755Y870640*
X417718Y870631*
X417687Y870625*
X417656Y870619*
X417625Y870614*
X417593Y870609*
X417560Y870606*
X417527Y870603*
X417493Y870600*
X417459Y870599*
X417424Y870598*
X417388Y870597*
X417360Y870597*
X417333Y870598*
X417305Y870599*
X417278Y870601*
X417251Y870602*
X417225Y870605*
X417198Y870608*
X417172Y870611*
X417146Y870614*
X417120Y870619*
X417095Y870623*
X417070Y870628*
X417045Y870633*
X417020Y870639*
X416995Y870645*
X416971Y870652*
X416947Y870659*
X416924Y870666*
X416900Y870674*
X416877Y870683*
X416854Y870691*
X416831Y870700*
X416805Y870712*
X416780Y870723*
X416754Y870736*
X416730Y870748*
X416705Y870762*
X416681Y870775*
X416658Y870790*
X416635Y870805*
X416612Y870820*
X416590Y870836*
X416568Y870853*
X416546Y870870*
X416525Y870888*
X416505Y870906*
X416484Y870925*
X416464Y870944*
X416445Y870964*
X416426Y870984*
X416407Y871005*
X416389Y871027*
X416371Y871049*
X416354Y871071*
X416337Y871094*
X416321Y871118*
X416305Y871142*
X416289Y871167*
X416274Y871192*
X416260Y871217*
X416246Y871244*
X416232Y871270*
X416219Y871298*
X416206Y871325*
X416193Y871354*
X416181Y871383*
X416170Y871412*
X416159Y871442*
X416148Y871472*
X416138Y871503*
X416129Y871531*
X416121Y871560*
X416113Y871590*
X416106Y871619*
X416098Y871649*
X416092Y871680*
X416086Y871711*
X416080Y871742*
X416074Y871773*
X416070Y871806*
X416065Y871838*
X416061Y871871*
X416057Y871904*
X416054Y871938*
X416051Y871972*
X416049Y872007*
X416047Y872041*
X416046Y872077*
X416045Y872113*
X416044Y872149*
X416044Y872177*
X416044Y872206*
X416045Y872234*
X416046Y872262*
X416047Y872289*
X416048Y872317*
X416049Y872344*
X416051Y872371*
X416053Y872397*
X416055Y872423*
X416057Y872449*
X416060Y872475*
X416063Y872501*
X416066Y872526*
X416069Y872551*
X416072Y872575*
X416076Y872599*
X416080Y872624*
X416084Y872647*
X416089Y872671*
X416093Y872694*
X416098Y872717*
X416103Y872740*
X416108Y872762*
X416114Y872784*
X416120Y872806*
X416126Y872828*
X416132Y872849*
X416138Y872870*
X416145Y872891*
X416154Y872918*
X416163Y872944*
X416173Y872970*
X416183Y872996*
X416193Y873021*
X416203Y873046*
X416214Y873071*
X416225Y873095*
X416237Y873119*
X416248Y873142*
X416260Y873166*
X416273Y873188*
X416286Y873211*
X416298Y873233*
X416312Y873255*
X416325Y873276*
X416339Y873297*
X416354Y873318*
X416368Y873338*
X416383Y873358*
X416398Y873378*
X416413Y873397*
X416429Y873416*
X416448Y873437*
X416467Y873458*
X416486Y873478*
X416505Y873498*
X416525Y873517*
X416546Y873536*
X416566Y873554*
X416587Y873572*
X416609Y873589*
X416630Y873605*
X416652Y873622*
X416675Y873637*
X416698Y873652*
X416721Y873667*
X416744Y873681*
X416768Y873695*
X416793Y873708*
X416817Y873720*
X416842Y873732*
X416868Y873744*
X416893Y873754*
X416919Y873764*
X416945Y873774*
X416971Y873783*
X416997Y873791*
X417024Y873799*
X417050Y873807*
X417077Y873814*
X417103Y873820*
X417130Y873826*
X417157Y873831*
X417184Y873836*
X417211Y873841*
X417238Y873845*
X417266Y873848*
X417293Y873851*
X417321Y873853*
X417349Y873855*
X417377Y873856*
X417405Y873857*
X417433Y873857*
X417463Y873857*
X417493Y873856*
X417523Y873854*
X417553Y873852*
X417582Y873850*
X417612Y873846*
X417641Y873843*
X417670Y873838*
X417701Y873832*
X417731Y873826*
X417760Y873820*
X417789Y873814*
X417816Y873807*
X417842Y873800*
X417868Y873794*
X417892Y873787*
X417915Y873780*
X417938Y873772*
X417969Y873762*
X417999Y873750*
X418028Y873739*
X418055Y873727*
X418082Y873714*
X418108Y873701*
X418133Y873687*
X418160Y873672*
X418184Y873657*
X418206Y873643*
X418224Y873631*
X418239Y873619*
X418252Y873608*
X418271Y873589*
X418285Y873573*
X418294Y873560*
X418310Y873519*
X418320Y873463*
X418323Y873428*
X418324Y873386*
X418323Y873354*
X418321Y873326*
X418319Y873302*
X418313Y873270*
X418304Y873243*
X418281Y873208*
X418247Y873197*
X418206Y873209*
X418151Y873244*
X418118Y873268*
X418081Y873293*
X418039Y873320*
X417993Y873347*
X417959Y873366*
X417923Y873384*
X417885Y873401*
X417845Y873418*
X417802Y873434*
X417757Y873450*
X417721Y873461*
X417684Y873471*
X417645Y873479*
X417604Y873485*
X417561Y873491*
X417517Y873494*
X417471Y873496*
X417423Y873497*
X417385Y873496*
X417348Y873494*
X417311Y873491*
X417275Y873486*
X417239Y873480*
X417204Y873472*
X417169Y873463*
X417136Y873452*
X417103Y873440*
X417070Y873427*
X417037Y873410*
X417004Y873392*
X416973Y873373*
X416942Y873353*
X416913Y873333*
X416885Y873311*
X416859Y873289*
X416833Y873265*
X416809Y873241*
X416785Y873216*
X416763Y873189*
X416742Y873162*
X416720Y873132*
X416699Y873100*
X416679Y873067*
X416660Y873033*
X416642Y872997*
X416624Y872961*
X416608Y872923*
X416592Y872884*
X416578Y872844*
X416564Y872803*
X416554Y872768*
X416545Y872732*
X416537Y872697*
X416529Y872661*
X416522Y872625*
X416515Y872589*
X416509Y872553*
X416504Y872516*
X416499Y872480*
X416495Y872443*
X416491Y872406*
X416489Y872369*
X416486Y872331*
X416485Y872293*
X416484Y872256*
X416484Y872217*
X416484Y872182*
X416485Y872147*
X416486Y872113*
X416487Y872079*
X416489Y872045*
X416492Y872012*
X416495Y871980*
X416498Y871948*
X416502Y871917*
X416506Y871886*
X416511Y871855*
X416516Y871825*
X416522Y871795*
X416528Y871766*
X416535Y871738*
X416542Y871710*
X416549Y871682*
X416559Y871647*
X416571Y871612*
X416582Y871579*
X416595Y871546*
X416608Y871515*
X416622Y871484*
X416636Y871454*
X416651Y871425*
X416667Y871397*
X416683Y871370*
X416700Y871343*
X416718Y871318*
X416737Y871293*
X416762Y871263*
X416788Y871234*
X416815Y871206*
X416843Y871181*
X416873Y871156*
X416903Y871133*
X416935Y871112*
X416968Y871092*
X417002Y871074*
X417037Y871057*
X417073Y871042*
X417110Y871028*
X417148Y871016*
X417187Y871006*
X417227Y870997*
X417267Y870990*
X417309Y870984*
X417352Y870980*
X417395Y870978*
X417440Y870977*
X417477Y870978*
X417514Y870979*
X417549Y870981*
X417584Y870985*
X417618Y870989*
X417651Y870994*
X417682Y871000*
X417713Y871007*
X417743Y871015*
X417772Y871024*
X417807Y871035*
X417840Y871047*
X417873Y871060*
X417903Y871073*
X417933Y871086*
X417961Y871099*
X417988Y871113*
X418014Y871127*
X418042Y871143*
X418068Y871159*
X418093Y871174*
X418117Y871189*
X418139Y871203*
X418159Y871217*
X418178Y871231*
X418199Y871245*
X418218Y871257*
X418236Y871266*
X418252Y871272*
X418266Y871276*
X418279Y871277*
X418309Y871270*
X418329Y871242*
X418340Y871185*
X418343Y871143*
X418344Y871092*
G36*
X421304Y870818D02*
X421302Y870787D01*
X421296Y870760*
X421287Y870735*
X421268Y870704*
X421244Y870679*
X421216Y870660*
X421185Y870647*
X421152Y870640*
X421119Y870637*
X420980Y870637*
X420948Y870638*
X420918Y870640*
X420890Y870644*
X420865Y870650*
X420832Y870661*
X420801Y870676*
X420771Y870696*
X420742Y870721*
X420712Y870752*
X420683Y870788*
X420660Y870820*
X420637Y870856*
X420613Y870897*
X420589Y870942*
X419620Y872754*
X419605Y872782*
X419590Y872811*
X419575Y872839*
X419559Y872868*
X419544Y872898*
X419529Y872927*
X419513Y872957*
X419498Y872987*
X419483Y873017*
X419467Y873048*
X419453Y873076*
X419440Y873104*
X419426Y873131*
X419413Y873159*
X419399Y873186*
X419386Y873213*
X419373Y873240*
X419361Y873267*
X419348Y873294*
X419336Y873321*
X419319Y873347*
X419320Y873315*
X419320Y873282*
X419321Y873250*
X419322Y873217*
X419322Y873185*
X419323Y873152*
X419323Y873119*
X419323Y873085*
X419324Y873052*
X419324Y873019*
X419324Y872985*
X419324Y872952*
X419324Y872920*
X419324Y872888*
X419324Y872856*
X419324Y872825*
X419324Y872794*
X419324Y872764*
X419324Y872734*
X419324Y872704*
X419324Y872675*
X419324Y872647*
X419324Y872618*
X419324Y870696*
X419313Y870663*
X419278Y870638*
X419214Y870623*
X419169Y870619*
X419112Y870617*
X419083Y870618*
X419056Y870619*
X419032Y870621*
X419011Y870623*
X418975Y870630*
X418947Y870638*
X418914Y870663*
X418904Y870696*
X418904Y873635*
X418905Y873659*
X418907Y873681*
X418912Y873701*
X418918Y873719*
X418926Y873736*
X418935Y873751*
X418946Y873764*
X418960Y873775*
X418982Y873790*
X419006Y873802*
X419030Y873810*
X419055Y873815*
X419081Y873817*
X419290Y873817*
X419318Y873817*
X419345Y873815*
X419370Y873813*
X419392Y873809*
X419413Y873805*
X419445Y873795*
X419475Y873781*
X419502Y873764*
X419528Y873743*
X419553Y873717*
X419578Y873685*
X419597Y873659*
X419616Y873629*
X419636Y873595*
X419656Y873559*
X420400Y872161*
X420415Y872132*
X420430Y872104*
X420445Y872076*
X420460Y872048*
X420475Y872020*
X420489Y871993*
X420504Y871965*
X420518Y871938*
X420534Y871908*
X420549Y871879*
X420564Y871851*
X420578Y871823*
X420592Y871796*
X420606Y871770*
X420619Y871744*
X420632Y871719*
X420644Y871694*
X420656Y871671*
X420671Y871641*
X420686Y871612*
X420700Y871582*
X420715Y871553*
X420730Y871524*
X420744Y871495*
X420759Y871467*
X420773Y871438*
X420788Y871409*
X420802Y871381*
X420817Y871352*
X420831Y871323*
X420846Y871294*
X420860Y871266*
X420874Y871237*
X420888Y871208*
X420891Y871208*
X420890Y871240*
X420889Y871273*
X420889Y871306*
X420888Y871339*
X420888Y871372*
X420887Y871406*
X420887Y871440*
X420886Y871474*
X420886Y871508*
X420885Y871542*
X420885Y871577*
X420885Y871612*
X420885Y871644*
X420885Y871676*
X420884Y871708*
X420884Y871739*
X420884Y871771*
X420884Y871802*
X420884Y871833*
X420884Y871864*
X420884Y871895*
X420884Y871925*
X420884Y871955*
X420884Y871985*
X420884Y872015*
X420884Y873739*
X420894Y873771*
X420929Y873796*
X420993Y873812*
X421039Y873816*
X421097Y873817*
X421134Y873817*
X421166Y873815*
X421196Y873812*
X421232Y873806*
X421260Y873796*
X421293Y873771*
X421304Y873739*
X421304Y870818*
G37*
X421302Y870787*
X421296Y870760*
X421287Y870735*
X421268Y870704*
X421244Y870679*
X421216Y870660*
X421185Y870647*
X421152Y870640*
X421119Y870637*
X420980Y870637*
X420948Y870638*
X420918Y870640*
X420890Y870644*
X420865Y870650*
X420832Y870661*
X420801Y870676*
X420771Y870696*
X420742Y870721*
X420712Y870752*
X420683Y870788*
X420660Y870820*
X420637Y870856*
X420613Y870897*
X420589Y870942*
X419620Y872754*
X419605Y872782*
X419590Y872811*
X419575Y872839*
X419559Y872868*
X419544Y872898*
X419529Y872927*
X419513Y872957*
X419498Y872987*
X419483Y873017*
X419467Y873048*
X419453Y873076*
X419440Y873104*
X419426Y873131*
X419413Y873159*
X419399Y873186*
X419386Y873213*
X419373Y873240*
X419361Y873267*
X419348Y873294*
X419336Y873321*
X419319Y873347*
X419320Y873315*
X419320Y873282*
X419321Y873250*
X419322Y873217*
X419322Y873185*
X419323Y873152*
X419323Y873119*
X419323Y873085*
X419324Y873052*
X419324Y873019*
X419324Y872985*
X419324Y872952*
X419324Y872920*
X419324Y872888*
X419324Y872856*
X419324Y872825*
X419324Y872794*
X419324Y872764*
X419324Y872734*
X419324Y872704*
X419324Y872675*
X419324Y872647*
X419324Y872618*
X419324Y870696*
X419313Y870663*
X419278Y870638*
X419214Y870623*
X419169Y870619*
X419112Y870617*
X419083Y870618*
X419056Y870619*
X419032Y870621*
X419011Y870623*
X418975Y870630*
X418947Y870638*
X418914Y870663*
X418904Y870696*
X418904Y873635*
X418905Y873659*
X418907Y873681*
X418912Y873701*
X418918Y873719*
X418926Y873736*
X418935Y873751*
X418946Y873764*
X418960Y873775*
X418982Y873790*
X419006Y873802*
X419030Y873810*
X419055Y873815*
X419081Y873817*
X419290Y873817*
X419318Y873817*
X419345Y873815*
X419370Y873813*
X419392Y873809*
X419413Y873805*
X419445Y873795*
X419475Y873781*
X419502Y873764*
X419528Y873743*
X419553Y873717*
X419578Y873685*
X419597Y873659*
X419616Y873629*
X419636Y873595*
X419656Y873559*
X420400Y872161*
X420415Y872132*
X420430Y872104*
X420445Y872076*
X420460Y872048*
X420475Y872020*
X420489Y871993*
X420504Y871965*
X420518Y871938*
X420534Y871908*
X420549Y871879*
X420564Y871851*
X420578Y871823*
X420592Y871796*
X420606Y871770*
X420619Y871744*
X420632Y871719*
X420644Y871694*
X420656Y871671*
X420671Y871641*
X420686Y871612*
X420700Y871582*
X420715Y871553*
X420730Y871524*
X420744Y871495*
X420759Y871467*
X420773Y871438*
X420788Y871409*
X420802Y871381*
X420817Y871352*
X420831Y871323*
X420846Y871294*
X420860Y871266*
X420874Y871237*
X420888Y871208*
X420891Y871208*
X420890Y871240*
X420889Y871273*
X420889Y871306*
X420888Y871339*
X420888Y871372*
X420887Y871406*
X420887Y871440*
X420886Y871474*
X420886Y871508*
X420885Y871542*
X420885Y871577*
X420885Y871612*
X420885Y871644*
X420885Y871676*
X420884Y871708*
X420884Y871739*
X420884Y871771*
X420884Y871802*
X420884Y871833*
X420884Y871864*
X420884Y871895*
X420884Y871925*
X420884Y871955*
X420884Y871985*
X420884Y872015*
X420884Y873739*
X420894Y873771*
X420929Y873796*
X420993Y873812*
X421039Y873816*
X421097Y873817*
X421134Y873817*
X421166Y873815*
X421196Y873812*
X421232Y873806*
X421260Y873796*
X421293Y873771*
X421304Y873739*
X421304Y870818*
G36*
X423984Y870805D02*
X423983Y870775D01*
X423980Y870749*
X423976Y870726*
X423968Y870697*
X423957Y870674*
X423928Y870646*
X423895Y870637*
X422232Y870637*
X422200Y870646*
X422172Y870674*
X422151Y870726*
X422146Y870761*
X422144Y870805*
X422144Y870833*
X422147Y870858*
X422151Y870881*
X422160Y870910*
X422170Y870934*
X422197Y870966*
X422233Y870977*
X422904Y870977*
X422904Y873397*
X422293Y873037*
X422264Y873023*
X422239Y873013*
X422218Y873008*
X422193Y873008*
X422173Y873019*
X422150Y873071*
X422145Y873112*
X422144Y873163*
X422145Y873201*
X422147Y873233*
X422152Y873260*
X422158Y873282*
X422179Y873316*
X422215Y873345*
X422943Y873808*
X422967Y873820*
X423004Y873830*
X423055Y873836*
X423128Y873837*
X423165Y873837*
X423198Y873835*
X423226Y873832*
X423261Y873826*
X423287Y873819*
X423316Y873797*
X423324Y873768*
X423324Y870977*
X423896Y870977*
X423932Y870966*
X423960Y870934*
X423978Y870881*
X423982Y870846*
X423984Y870805*
G37*
X423983Y870775*
X423980Y870749*
X423976Y870726*
X423968Y870697*
X423957Y870674*
X423928Y870646*
X423895Y870637*
X422232Y870637*
X422200Y870646*
X422172Y870674*
X422151Y870726*
X422146Y870761*
X422144Y870805*
X422144Y870833*
X422147Y870858*
X422151Y870881*
X422160Y870910*
X422170Y870934*
X422197Y870966*
X422233Y870977*
X422904Y870977*
X422904Y873397*
X422293Y873037*
X422264Y873023*
X422239Y873013*
X422218Y873008*
X422193Y873008*
X422173Y873019*
X422150Y873071*
X422145Y873112*
X422144Y873163*
X422145Y873201*
X422147Y873233*
X422152Y873260*
X422158Y873282*
X422179Y873316*
X422215Y873345*
X422943Y873808*
X422967Y873820*
X423004Y873830*
X423055Y873836*
X423128Y873837*
X423165Y873837*
X423198Y873835*
X423226Y873832*
X423261Y873826*
X423287Y873819*
X423316Y873797*
X423324Y873768*
X423324Y870977*
X423896Y870977*
X423932Y870966*
X423960Y870934*
X423978Y870881*
X423982Y870846*
X423984Y870805*
D41*
X518304Y846297D03*
X518304Y837297D03*
D17*
X431304Y844297D03*
X440304Y844297D03*
D41*
X525804Y837297D03*
X525804Y846297D03*
D42*
X447890Y630655D03*
X483717Y630655D03*
X447890Y612939D03*
X483717Y612939D03*
X383717Y612939D03*
X347890Y612939D03*
X383717Y630655D03*
X347890Y630655D03*
D14*
X374304Y670644D03*
X374304Y663951D03*
D24*
X457457Y739297D03*
X464150Y739297D03*
D26*
X400767Y759277D03*
X420767Y759277D03*
D24*
X431891Y640733D03*
X425198Y640733D03*
D25*
X440941Y753297D03*
X445666Y753297D03*
D16*
X368304Y781935D03*
X368304Y786659D03*
D14*
X366804Y670644D03*
X366804Y663951D03*
X343304Y855144D03*
X343304Y848451D03*
D16*
X363304Y786659D03*
X363304Y781935D03*
X468304Y701659D03*
X468304Y696935D03*
D28*
X370193Y741797D03*
X356414Y741797D03*
D16*
X463304Y701659D03*
X463304Y696935D03*
X428304Y791659D03*
X428304Y786935D03*
D14*
X418804Y739951D03*
X418804Y746644D03*
D25*
X535166Y784297D03*
X530441Y784297D03*
D14*
X458304Y660644D03*
X458304Y653951D03*
D16*
X433304Y791659D03*
X433304Y786935D03*
X363304Y850935D03*
X363304Y855659D03*
X354804Y869659D03*
X354804Y864935D03*
X412304Y740435D03*
X412304Y745159D03*
X403804Y740435D03*
X403804Y745159D03*
X437304Y739435D03*
X437304Y744159D03*
X368308Y850911D03*
X368308Y855636D03*
X376304Y782935D03*
X376304Y787659D03*
X378304Y805159D03*
X378304Y800435D03*
D14*
X397304Y739951D03*
X397304Y746644D03*
D16*
X381304Y782935D03*
X381304Y787659D03*
D43*
X432312Y540289D03*
X427579Y545021D03*
D14*
X415804Y533451D03*
X415804Y540144D03*
D44*
X399295Y540289D03*
X404028Y545021D03*
D24*
X439150Y556797D03*
X432457Y556797D03*
X447457Y556797D03*
X454150Y556797D03*
D43*
X399295Y573306D03*
X404028Y568573D03*
D24*
X392457Y556797D03*
X399150Y556797D03*
D14*
X415804Y525144D03*
X415804Y518451D03*
D24*
X384150Y556797D03*
X377457Y556797D03*
D44*
X393421Y534415D03*
X388689Y529682D03*
D43*
X393421Y579180D03*
X388689Y583912D03*
X438186Y534415D03*
X442919Y529682D03*
D44*
X432312Y573306D03*
X427579Y568573D03*
X438186Y579180D03*
X442919Y583912D03*
D14*
X415804Y580144D03*
X415804Y573451D03*
X415804Y588451D03*
X415804Y595144D03*
D45*
X340804Y754797D03*
X340804Y748797D03*
D46*
X368756Y874203D03*
X368756Y862392D03*
X362851Y862392D03*
X362851Y874203D03*
D36*
X514592Y858470D03*
X511442Y858470D03*
X508292Y858470D03*
X505142Y858470D03*
X501992Y858470D03*
D37*
X489199Y858274D03*
X489199Y877959D03*
X527388Y858274D03*
X527388Y877959D03*
D38*
X508304Y882486D03*
D39*
X516942Y869297D03*
X499642Y869297D03*
D40*
G36*
X510844Y871092D02*
X510843Y871056D01*
X510841Y871024*
X510833Y870973*
X510817Y870934*
X510782Y870892*
X510745Y870860*
X510680Y870815*
X510652Y870798*
X510623Y870781*
X510592Y870764*
X510558Y870747*
X510522Y870731*
X510485Y870714*
X510455Y870702*
X510424Y870691*
X510393Y870680*
X510360Y870669*
X510326Y870659*
X510291Y870649*
X510255Y870640*
X510218Y870631*
X510187Y870625*
X510156Y870619*
X510125Y870614*
X510093Y870609*
X510060Y870606*
X510027Y870603*
X509993Y870600*
X509959Y870599*
X509924Y870598*
X509888Y870597*
X509860Y870597*
X509833Y870598*
X509805Y870599*
X509778Y870601*
X509751Y870602*
X509725Y870605*
X509698Y870608*
X509672Y870611*
X509646Y870614*
X509620Y870619*
X509595Y870623*
X509570Y870628*
X509545Y870633*
X509520Y870639*
X509495Y870645*
X509471Y870652*
X509447Y870659*
X509424Y870666*
X509400Y870674*
X509377Y870683*
X509354Y870691*
X509331Y870700*
X509305Y870712*
X509280Y870723*
X509254Y870736*
X509230Y870748*
X509205Y870762*
X509181Y870775*
X509158Y870790*
X509135Y870805*
X509112Y870820*
X509090Y870836*
X509068Y870853*
X509046Y870870*
X509025Y870888*
X509005Y870906*
X508984Y870925*
X508964Y870944*
X508945Y870964*
X508926Y870984*
X508907Y871005*
X508889Y871027*
X508871Y871049*
X508854Y871071*
X508837Y871094*
X508821Y871118*
X508805Y871142*
X508789Y871167*
X508774Y871192*
X508760Y871217*
X508746Y871244*
X508732Y871270*
X508719Y871298*
X508706Y871325*
X508693Y871354*
X508681Y871383*
X508670Y871412*
X508659Y871442*
X508648Y871472*
X508638Y871503*
X508629Y871531*
X508621Y871560*
X508613Y871590*
X508606Y871619*
X508598Y871649*
X508592Y871680*
X508586Y871711*
X508580Y871742*
X508574Y871773*
X508570Y871806*
X508565Y871838*
X508561Y871871*
X508557Y871904*
X508554Y871938*
X508551Y871972*
X508549Y872007*
X508547Y872041*
X508546Y872077*
X508545Y872113*
X508544Y872149*
X508544Y872177*
X508544Y872206*
X508545Y872234*
X508546Y872262*
X508547Y872289*
X508548Y872317*
X508549Y872344*
X508551Y872371*
X508553Y872397*
X508555Y872423*
X508557Y872449*
X508560Y872475*
X508563Y872501*
X508566Y872526*
X508569Y872551*
X508572Y872575*
X508576Y872599*
X508580Y872624*
X508584Y872647*
X508589Y872671*
X508593Y872694*
X508598Y872717*
X508603Y872740*
X508608Y872762*
X508614Y872784*
X508620Y872806*
X508626Y872828*
X508632Y872849*
X508638Y872870*
X508645Y872891*
X508654Y872918*
X508663Y872944*
X508673Y872970*
X508683Y872996*
X508693Y873021*
X508703Y873046*
X508714Y873071*
X508725Y873095*
X508737Y873119*
X508748Y873142*
X508760Y873166*
X508773Y873188*
X508786Y873211*
X508798Y873233*
X508812Y873255*
X508825Y873276*
X508839Y873297*
X508854Y873318*
X508868Y873338*
X508883Y873358*
X508898Y873378*
X508913Y873397*
X508929Y873416*
X508948Y873437*
X508967Y873458*
X508986Y873478*
X509005Y873498*
X509025Y873517*
X509046Y873536*
X509066Y873554*
X509087Y873572*
X509109Y873589*
X509130Y873605*
X509152Y873622*
X509175Y873637*
X509198Y873652*
X509221Y873667*
X509244Y873681*
X509268Y873695*
X509293Y873708*
X509317Y873720*
X509342Y873732*
X509368Y873744*
X509393Y873754*
X509419Y873764*
X509445Y873774*
X509471Y873783*
X509497Y873791*
X509524Y873799*
X509550Y873807*
X509577Y873814*
X509603Y873820*
X509630Y873826*
X509657Y873831*
X509684Y873836*
X509711Y873841*
X509738Y873845*
X509766Y873848*
X509793Y873851*
X509821Y873853*
X509849Y873855*
X509877Y873856*
X509905Y873857*
X509933Y873857*
X509963Y873857*
X509993Y873856*
X510023Y873854*
X510053Y873852*
X510082Y873850*
X510112Y873846*
X510141Y873843*
X510170Y873838*
X510201Y873832*
X510231Y873826*
X510260Y873820*
X510289Y873814*
X510316Y873807*
X510342Y873800*
X510368Y873794*
X510392Y873787*
X510415Y873780*
X510438Y873772*
X510469Y873762*
X510499Y873750*
X510528Y873739*
X510555Y873727*
X510582Y873714*
X510608Y873701*
X510633Y873687*
X510660Y873672*
X510684Y873657*
X510706Y873643*
X510724Y873631*
X510739Y873619*
X510752Y873608*
X510771Y873589*
X510785Y873573*
X510794Y873560*
X510810Y873519*
X510820Y873463*
X510823Y873428*
X510824Y873386*
X510823Y873354*
X510821Y873326*
X510819Y873302*
X510813Y873270*
X510804Y873243*
X510781Y873208*
X510747Y873197*
X510706Y873209*
X510651Y873244*
X510618Y873268*
X510581Y873293*
X510539Y873320*
X510493Y873347*
X510459Y873366*
X510423Y873384*
X510385Y873401*
X510345Y873418*
X510302Y873434*
X510257Y873450*
X510221Y873461*
X510184Y873471*
X510145Y873479*
X510104Y873485*
X510061Y873491*
X510017Y873494*
X509971Y873496*
X509923Y873497*
X509885Y873496*
X509848Y873494*
X509811Y873491*
X509775Y873486*
X509739Y873480*
X509704Y873472*
X509669Y873463*
X509636Y873452*
X509603Y873440*
X509570Y873427*
X509537Y873410*
X509504Y873392*
X509473Y873373*
X509442Y873353*
X509413Y873333*
X509385Y873311*
X509359Y873289*
X509333Y873265*
X509309Y873241*
X509285Y873216*
X509263Y873189*
X509242Y873162*
X509220Y873132*
X509199Y873100*
X509179Y873067*
X509160Y873033*
X509142Y872997*
X509124Y872961*
X509108Y872923*
X509092Y872884*
X509078Y872844*
X509064Y872803*
X509054Y872768*
X509045Y872732*
X509037Y872697*
X509029Y872661*
X509022Y872625*
X509015Y872589*
X509009Y872553*
X509004Y872516*
X508999Y872480*
X508995Y872443*
X508991Y872406*
X508989Y872369*
X508986Y872331*
X508985Y872293*
X508984Y872256*
X508984Y872217*
X508984Y872182*
X508985Y872147*
X508986Y872113*
X508987Y872079*
X508989Y872045*
X508992Y872012*
X508995Y871980*
X508998Y871948*
X509002Y871917*
X509006Y871886*
X509011Y871855*
X509016Y871825*
X509022Y871795*
X509028Y871766*
X509035Y871738*
X509042Y871710*
X509049Y871682*
X509059Y871647*
X509071Y871612*
X509082Y871579*
X509095Y871546*
X509108Y871515*
X509122Y871484*
X509136Y871454*
X509151Y871425*
X509167Y871397*
X509183Y871370*
X509200Y871343*
X509218Y871318*
X509237Y871293*
X509262Y871263*
X509288Y871234*
X509315Y871206*
X509343Y871181*
X509373Y871156*
X509403Y871133*
X509435Y871112*
X509468Y871092*
X509502Y871074*
X509537Y871057*
X509573Y871042*
X509610Y871028*
X509648Y871016*
X509687Y871006*
X509727Y870997*
X509767Y870990*
X509809Y870984*
X509852Y870980*
X509895Y870978*
X509940Y870977*
X509977Y870978*
X510014Y870979*
X510049Y870981*
X510084Y870985*
X510118Y870989*
X510151Y870994*
X510182Y871000*
X510213Y871007*
X510243Y871015*
X510272Y871024*
X510307Y871035*
X510340Y871047*
X510373Y871060*
X510403Y871073*
X510433Y871086*
X510461Y871099*
X510488Y871113*
X510514Y871127*
X510542Y871143*
X510568Y871159*
X510593Y871174*
X510617Y871189*
X510639Y871203*
X510659Y871217*
X510678Y871231*
X510699Y871245*
X510718Y871257*
X510736Y871266*
X510752Y871272*
X510766Y871276*
X510779Y871277*
X510809Y871270*
X510829Y871242*
X510840Y871185*
X510843Y871143*
X510844Y871092*
G37*
X510843Y871056*
X510841Y871024*
X510833Y870973*
X510817Y870934*
X510782Y870892*
X510745Y870860*
X510680Y870815*
X510652Y870798*
X510623Y870781*
X510592Y870764*
X510558Y870747*
X510522Y870731*
X510485Y870714*
X510455Y870702*
X510424Y870691*
X510393Y870680*
X510360Y870669*
X510326Y870659*
X510291Y870649*
X510255Y870640*
X510218Y870631*
X510187Y870625*
X510156Y870619*
X510125Y870614*
X510093Y870609*
X510060Y870606*
X510027Y870603*
X509993Y870600*
X509959Y870599*
X509924Y870598*
X509888Y870597*
X509860Y870597*
X509833Y870598*
X509805Y870599*
X509778Y870601*
X509751Y870602*
X509725Y870605*
X509698Y870608*
X509672Y870611*
X509646Y870614*
X509620Y870619*
X509595Y870623*
X509570Y870628*
X509545Y870633*
X509520Y870639*
X509495Y870645*
X509471Y870652*
X509447Y870659*
X509424Y870666*
X509400Y870674*
X509377Y870683*
X509354Y870691*
X509331Y870700*
X509305Y870712*
X509280Y870723*
X509254Y870736*
X509230Y870748*
X509205Y870762*
X509181Y870775*
X509158Y870790*
X509135Y870805*
X509112Y870820*
X509090Y870836*
X509068Y870853*
X509046Y870870*
X509025Y870888*
X509005Y870906*
X508984Y870925*
X508964Y870944*
X508945Y870964*
X508926Y870984*
X508907Y871005*
X508889Y871027*
X508871Y871049*
X508854Y871071*
X508837Y871094*
X508821Y871118*
X508805Y871142*
X508789Y871167*
X508774Y871192*
X508760Y871217*
X508746Y871244*
X508732Y871270*
X508719Y871298*
X508706Y871325*
X508693Y871354*
X508681Y871383*
X508670Y871412*
X508659Y871442*
X508648Y871472*
X508638Y871503*
X508629Y871531*
X508621Y871560*
X508613Y871590*
X508606Y871619*
X508598Y871649*
X508592Y871680*
X508586Y871711*
X508580Y871742*
X508574Y871773*
X508570Y871806*
X508565Y871838*
X508561Y871871*
X508557Y871904*
X508554Y871938*
X508551Y871972*
X508549Y872007*
X508547Y872041*
X508546Y872077*
X508545Y872113*
X508544Y872149*
X508544Y872177*
X508544Y872206*
X508545Y872234*
X508546Y872262*
X508547Y872289*
X508548Y872317*
X508549Y872344*
X508551Y872371*
X508553Y872397*
X508555Y872423*
X508557Y872449*
X508560Y872475*
X508563Y872501*
X508566Y872526*
X508569Y872551*
X508572Y872575*
X508576Y872599*
X508580Y872624*
X508584Y872647*
X508589Y872671*
X508593Y872694*
X508598Y872717*
X508603Y872740*
X508608Y872762*
X508614Y872784*
X508620Y872806*
X508626Y872828*
X508632Y872849*
X508638Y872870*
X508645Y872891*
X508654Y872918*
X508663Y872944*
X508673Y872970*
X508683Y872996*
X508693Y873021*
X508703Y873046*
X508714Y873071*
X508725Y873095*
X508737Y873119*
X508748Y873142*
X508760Y873166*
X508773Y873188*
X508786Y873211*
X508798Y873233*
X508812Y873255*
X508825Y873276*
X508839Y873297*
X508854Y873318*
X508868Y873338*
X508883Y873358*
X508898Y873378*
X508913Y873397*
X508929Y873416*
X508948Y873437*
X508967Y873458*
X508986Y873478*
X509005Y873498*
X509025Y873517*
X509046Y873536*
X509066Y873554*
X509087Y873572*
X509109Y873589*
X509130Y873605*
X509152Y873622*
X509175Y873637*
X509198Y873652*
X509221Y873667*
X509244Y873681*
X509268Y873695*
X509293Y873708*
X509317Y873720*
X509342Y873732*
X509368Y873744*
X509393Y873754*
X509419Y873764*
X509445Y873774*
X509471Y873783*
X509497Y873791*
X509524Y873799*
X509550Y873807*
X509577Y873814*
X509603Y873820*
X509630Y873826*
X509657Y873831*
X509684Y873836*
X509711Y873841*
X509738Y873845*
X509766Y873848*
X509793Y873851*
X509821Y873853*
X509849Y873855*
X509877Y873856*
X509905Y873857*
X509933Y873857*
X509963Y873857*
X509993Y873856*
X510023Y873854*
X510053Y873852*
X510082Y873850*
X510112Y873846*
X510141Y873843*
X510170Y873838*
X510201Y873832*
X510231Y873826*
X510260Y873820*
X510289Y873814*
X510316Y873807*
X510342Y873800*
X510368Y873794*
X510392Y873787*
X510415Y873780*
X510438Y873772*
X510469Y873762*
X510499Y873750*
X510528Y873739*
X510555Y873727*
X510582Y873714*
X510608Y873701*
X510633Y873687*
X510660Y873672*
X510684Y873657*
X510706Y873643*
X510724Y873631*
X510739Y873619*
X510752Y873608*
X510771Y873589*
X510785Y873573*
X510794Y873560*
X510810Y873519*
X510820Y873463*
X510823Y873428*
X510824Y873386*
X510823Y873354*
X510821Y873326*
X510819Y873302*
X510813Y873270*
X510804Y873243*
X510781Y873208*
X510747Y873197*
X510706Y873209*
X510651Y873244*
X510618Y873268*
X510581Y873293*
X510539Y873320*
X510493Y873347*
X510459Y873366*
X510423Y873384*
X510385Y873401*
X510345Y873418*
X510302Y873434*
X510257Y873450*
X510221Y873461*
X510184Y873471*
X510145Y873479*
X510104Y873485*
X510061Y873491*
X510017Y873494*
X509971Y873496*
X509923Y873497*
X509885Y873496*
X509848Y873494*
X509811Y873491*
X509775Y873486*
X509739Y873480*
X509704Y873472*
X509669Y873463*
X509636Y873452*
X509603Y873440*
X509570Y873427*
X509537Y873410*
X509504Y873392*
X509473Y873373*
X509442Y873353*
X509413Y873333*
X509385Y873311*
X509359Y873289*
X509333Y873265*
X509309Y873241*
X509285Y873216*
X509263Y873189*
X509242Y873162*
X509220Y873132*
X509199Y873100*
X509179Y873067*
X509160Y873033*
X509142Y872997*
X509124Y872961*
X509108Y872923*
X509092Y872884*
X509078Y872844*
X509064Y872803*
X509054Y872768*
X509045Y872732*
X509037Y872697*
X509029Y872661*
X509022Y872625*
X509015Y872589*
X509009Y872553*
X509004Y872516*
X508999Y872480*
X508995Y872443*
X508991Y872406*
X508989Y872369*
X508986Y872331*
X508985Y872293*
X508984Y872256*
X508984Y872217*
X508984Y872182*
X508985Y872147*
X508986Y872113*
X508987Y872079*
X508989Y872045*
X508992Y872012*
X508995Y871980*
X508998Y871948*
X509002Y871917*
X509006Y871886*
X509011Y871855*
X509016Y871825*
X509022Y871795*
X509028Y871766*
X509035Y871738*
X509042Y871710*
X509049Y871682*
X509059Y871647*
X509071Y871612*
X509082Y871579*
X509095Y871546*
X509108Y871515*
X509122Y871484*
X509136Y871454*
X509151Y871425*
X509167Y871397*
X509183Y871370*
X509200Y871343*
X509218Y871318*
X509237Y871293*
X509262Y871263*
X509288Y871234*
X509315Y871206*
X509343Y871181*
X509373Y871156*
X509403Y871133*
X509435Y871112*
X509468Y871092*
X509502Y871074*
X509537Y871057*
X509573Y871042*
X509610Y871028*
X509648Y871016*
X509687Y871006*
X509727Y870997*
X509767Y870990*
X509809Y870984*
X509852Y870980*
X509895Y870978*
X509940Y870977*
X509977Y870978*
X510014Y870979*
X510049Y870981*
X510084Y870985*
X510118Y870989*
X510151Y870994*
X510182Y871000*
X510213Y871007*
X510243Y871015*
X510272Y871024*
X510307Y871035*
X510340Y871047*
X510373Y871060*
X510403Y871073*
X510433Y871086*
X510461Y871099*
X510488Y871113*
X510514Y871127*
X510542Y871143*
X510568Y871159*
X510593Y871174*
X510617Y871189*
X510639Y871203*
X510659Y871217*
X510678Y871231*
X510699Y871245*
X510718Y871257*
X510736Y871266*
X510752Y871272*
X510766Y871276*
X510779Y871277*
X510809Y871270*
X510829Y871242*
X510840Y871185*
X510843Y871143*
X510844Y871092*
G36*
X513804Y870818D02*
X513802Y870787D01*
X513796Y870760*
X513787Y870735*
X513768Y870704*
X513744Y870679*
X513716Y870660*
X513685Y870647*
X513652Y870640*
X513619Y870637*
X513480Y870637*
X513448Y870638*
X513418Y870640*
X513390Y870644*
X513365Y870650*
X513332Y870661*
X513301Y870676*
X513271Y870696*
X513242Y870721*
X513212Y870752*
X513183Y870788*
X513160Y870820*
X513137Y870856*
X513113Y870897*
X513089Y870942*
X512120Y872754*
X512105Y872782*
X512090Y872811*
X512075Y872839*
X512059Y872868*
X512044Y872898*
X512029Y872927*
X512013Y872957*
X511998Y872987*
X511983Y873017*
X511967Y873048*
X511953Y873076*
X511940Y873104*
X511926Y873131*
X511913Y873159*
X511899Y873186*
X511886Y873213*
X511873Y873240*
X511861Y873267*
X511848Y873294*
X511836Y873321*
X511819Y873347*
X511820Y873315*
X511820Y873282*
X511821Y873250*
X511822Y873217*
X511822Y873185*
X511823Y873152*
X511823Y873119*
X511823Y873085*
X511824Y873052*
X511824Y873019*
X511824Y872985*
X511824Y872952*
X511824Y872920*
X511824Y872888*
X511824Y872856*
X511824Y872825*
X511824Y872794*
X511824Y872764*
X511824Y872734*
X511824Y872704*
X511824Y872675*
X511824Y872647*
X511824Y872618*
X511824Y870696*
X511813Y870663*
X511778Y870638*
X511714Y870623*
X511669Y870619*
X511612Y870617*
X511583Y870618*
X511556Y870619*
X511532Y870621*
X511511Y870623*
X511475Y870630*
X511447Y870638*
X511414Y870663*
X511404Y870696*
X511404Y873635*
X511405Y873659*
X511407Y873681*
X511412Y873701*
X511418Y873719*
X511426Y873736*
X511435Y873751*
X511446Y873764*
X511460Y873775*
X511482Y873790*
X511506Y873802*
X511530Y873810*
X511555Y873815*
X511581Y873817*
X511790Y873817*
X511818Y873817*
X511845Y873815*
X511870Y873813*
X511892Y873809*
X511913Y873805*
X511945Y873795*
X511975Y873781*
X512002Y873764*
X512028Y873743*
X512053Y873717*
X512078Y873685*
X512097Y873659*
X512116Y873629*
X512136Y873595*
X512156Y873559*
X512900Y872161*
X512915Y872132*
X512930Y872104*
X512945Y872076*
X512960Y872048*
X512975Y872020*
X512989Y871993*
X513004Y871965*
X513018Y871938*
X513034Y871908*
X513049Y871879*
X513064Y871851*
X513078Y871823*
X513092Y871796*
X513106Y871770*
X513119Y871744*
X513132Y871719*
X513144Y871694*
X513156Y871671*
X513171Y871641*
X513186Y871612*
X513200Y871582*
X513215Y871553*
X513230Y871524*
X513244Y871495*
X513259Y871467*
X513273Y871438*
X513288Y871409*
X513302Y871381*
X513317Y871352*
X513331Y871323*
X513346Y871294*
X513360Y871266*
X513374Y871237*
X513388Y871208*
X513391Y871208*
X513390Y871240*
X513389Y871273*
X513389Y871306*
X513388Y871339*
X513388Y871372*
X513387Y871406*
X513387Y871440*
X513386Y871474*
X513386Y871508*
X513385Y871542*
X513385Y871577*
X513385Y871612*
X513385Y871644*
X513385Y871676*
X513384Y871708*
X513384Y871739*
X513384Y871771*
X513384Y871802*
X513384Y871833*
X513384Y871864*
X513384Y871895*
X513384Y871925*
X513384Y871955*
X513384Y871985*
X513384Y872015*
X513384Y873739*
X513394Y873771*
X513429Y873796*
X513493Y873812*
X513539Y873816*
X513597Y873817*
X513634Y873817*
X513666Y873815*
X513696Y873812*
X513732Y873806*
X513760Y873796*
X513793Y873771*
X513804Y873739*
X513804Y870818*
G37*
X513802Y870787*
X513796Y870760*
X513787Y870735*
X513768Y870704*
X513744Y870679*
X513716Y870660*
X513685Y870647*
X513652Y870640*
X513619Y870637*
X513480Y870637*
X513448Y870638*
X513418Y870640*
X513390Y870644*
X513365Y870650*
X513332Y870661*
X513301Y870676*
X513271Y870696*
X513242Y870721*
X513212Y870752*
X513183Y870788*
X513160Y870820*
X513137Y870856*
X513113Y870897*
X513089Y870942*
X512120Y872754*
X512105Y872782*
X512090Y872811*
X512075Y872839*
X512059Y872868*
X512044Y872898*
X512029Y872927*
X512013Y872957*
X511998Y872987*
X511983Y873017*
X511967Y873048*
X511953Y873076*
X511940Y873104*
X511926Y873131*
X511913Y873159*
X511899Y873186*
X511886Y873213*
X511873Y873240*
X511861Y873267*
X511848Y873294*
X511836Y873321*
X511819Y873347*
X511820Y873315*
X511820Y873282*
X511821Y873250*
X511822Y873217*
X511822Y873185*
X511823Y873152*
X511823Y873119*
X511823Y873085*
X511824Y873052*
X511824Y873019*
X511824Y872985*
X511824Y872952*
X511824Y872920*
X511824Y872888*
X511824Y872856*
X511824Y872825*
X511824Y872794*
X511824Y872764*
X511824Y872734*
X511824Y872704*
X511824Y872675*
X511824Y872647*
X511824Y872618*
X511824Y870696*
X511813Y870663*
X511778Y870638*
X511714Y870623*
X511669Y870619*
X511612Y870617*
X511583Y870618*
X511556Y870619*
X511532Y870621*
X511511Y870623*
X511475Y870630*
X511447Y870638*
X511414Y870663*
X511404Y870696*
X511404Y873635*
X511405Y873659*
X511407Y873681*
X511412Y873701*
X511418Y873719*
X511426Y873736*
X511435Y873751*
X511446Y873764*
X511460Y873775*
X511482Y873790*
X511506Y873802*
X511530Y873810*
X511555Y873815*
X511581Y873817*
X511790Y873817*
X511818Y873817*
X511845Y873815*
X511870Y873813*
X511892Y873809*
X511913Y873805*
X511945Y873795*
X511975Y873781*
X512002Y873764*
X512028Y873743*
X512053Y873717*
X512078Y873685*
X512097Y873659*
X512116Y873629*
X512136Y873595*
X512156Y873559*
X512900Y872161*
X512915Y872132*
X512930Y872104*
X512945Y872076*
X512960Y872048*
X512975Y872020*
X512989Y871993*
X513004Y871965*
X513018Y871938*
X513034Y871908*
X513049Y871879*
X513064Y871851*
X513078Y871823*
X513092Y871796*
X513106Y871770*
X513119Y871744*
X513132Y871719*
X513144Y871694*
X513156Y871671*
X513171Y871641*
X513186Y871612*
X513200Y871582*
X513215Y871553*
X513230Y871524*
X513244Y871495*
X513259Y871467*
X513273Y871438*
X513288Y871409*
X513302Y871381*
X513317Y871352*
X513331Y871323*
X513346Y871294*
X513360Y871266*
X513374Y871237*
X513388Y871208*
X513391Y871208*
X513390Y871240*
X513389Y871273*
X513389Y871306*
X513388Y871339*
X513388Y871372*
X513387Y871406*
X513387Y871440*
X513386Y871474*
X513386Y871508*
X513385Y871542*
X513385Y871577*
X513385Y871612*
X513385Y871644*
X513385Y871676*
X513384Y871708*
X513384Y871739*
X513384Y871771*
X513384Y871802*
X513384Y871833*
X513384Y871864*
X513384Y871895*
X513384Y871925*
X513384Y871955*
X513384Y871985*
X513384Y872015*
X513384Y873739*
X513394Y873771*
X513429Y873796*
X513493Y873812*
X513539Y873816*
X513597Y873817*
X513634Y873817*
X513666Y873815*
X513696Y873812*
X513732Y873806*
X513760Y873796*
X513793Y873771*
X513804Y873739*
X513804Y870818*
G36*
X516484Y870820D02*
X516482Y870778D01*
X516478Y870741*
X516470Y870709*
X516460Y870683*
X516431Y870648*
X516391Y870637*
X514643Y870637*
X514611Y870639*
X514583Y870646*
X514559Y870657*
X514539Y870674*
X514512Y870731*
X514506Y870772*
X514504Y870822*
X514504Y870853*
X514505Y870882*
X514507Y870908*
X514513Y870943*
X514524Y870973*
X514538Y871002*
X514555Y871030*
X514577Y871059*
X514604Y871090*
X515234Y871741*
X515256Y871765*
X515279Y871788*
X515300Y871811*
X515322Y871834*
X515343Y871857*
X515363Y871879*
X515383Y871901*
X515402Y871923*
X515421Y871944*
X515440Y871966*
X515458Y871987*
X515475Y872008*
X515492Y872028*
X515508Y872048*
X515524Y872068*
X515540Y872088*
X515555Y872108*
X515570Y872127*
X515584Y872146*
X515604Y872173*
X515623Y872200*
X515641Y872227*
X515659Y872253*
X515676Y872279*
X515693Y872304*
X515708Y872329*
X515723Y872354*
X515737Y872378*
X515751Y872402*
X515764Y872426*
X515776Y872449*
X515787Y872472*
X515802Y872504*
X515816Y872536*
X515829Y872567*
X515841Y872597*
X515851Y872627*
X515860Y872656*
X515869Y872684*
X515875Y872712*
X515882Y872748*
X515888Y872783*
X515893Y872816*
X515897Y872849*
X515900Y872879*
X515902Y872909*
X515903Y872937*
X515904Y872964*
X515902Y873006*
X515898Y873046*
X515891Y873085*
X515881Y873124*
X515869Y873161*
X515853Y873198*
X515835Y873232*
X515815Y873265*
X515792Y873296*
X515767Y873325*
X515739Y873352*
X515708Y873376*
X515675Y873399*
X515639Y873418*
X515600Y873436*
X515566Y873449*
X515530Y873459*
X515492Y873467*
X515453Y873473*
X515412Y873476*
X515369Y873477*
X515331Y873477*
X515295Y873475*
X515259Y873471*
X515224Y873467*
X515190Y873461*
X515157Y873454*
X515125Y873446*
X515094Y873436*
X515060Y873424*
X515027Y873412*
X514996Y873400*
X514965Y873387*
X514936Y873374*
X514908Y873361*
X514881Y873347*
X514851Y873331*
X514823Y873316*
X514797Y873301*
X514772Y873286*
X514749Y873272*
X514728Y873258*
X514705Y873243*
X514684Y873232*
X514666Y873224*
X514650Y873219*
X514636Y873217*
X514605Y873227*
X514582Y873259*
X514569Y873318*
X514565Y873359*
X514564Y873407*
X514564Y873441*
X514566Y873471*
X514575Y873517*
X514591Y873554*
X514630Y873597*
X514670Y873628*
X514731Y873668*
X514762Y873685*
X514795Y873703*
X514831Y873720*
X514870Y873738*
X514913Y873755*
X514944Y873767*
X514977Y873779*
X515010Y873789*
X515044Y873800*
X515079Y873810*
X515115Y873819*
X515152Y873828*
X515182Y873834*
X515211Y873839*
X515241Y873844*
X515271Y873848*
X515302Y873851*
X515333Y873854*
X515364Y873856*
X515396Y873857*
X515425Y873857*
X515453Y873856*
X515481Y873855*
X515508Y873854*
X515535Y873852*
X515561Y873850*
X515586Y873847*
X515611Y873844*
X515636Y873841*
X515660Y873837*
X515683Y873833*
X515706Y873828*
X515728Y873823*
X515750Y873818*
X515771Y873812*
X515791Y873806*
X515811Y873799*
X515838Y873789*
X515865Y873778*
X515890Y873766*
X515915Y873755*
X515938Y873743*
X515962Y873730*
X515984Y873717*
X516005Y873704*
X516026Y873690*
X516046Y873675*
X516065Y873661*
X516083Y873646*
X516101Y873630*
X516117Y873614*
X516137Y873594*
X516157Y873572*
X516175Y873550*
X516192Y873527*
X516209Y873504*
X516224Y873480*
X516239Y873456*
X516252Y873431*
X516265Y873405*
X516277Y873379*
X516287Y873352*
X516296Y873325*
X516304Y873298*
X516312Y873271*
X516318Y873244*
X516324Y873218*
X516329Y873191*
X516334Y873164*
X516337Y873138*
X516340Y873112*
X516342Y873085*
X516343Y873059*
X516344Y873033*
X516343Y873003*
X516343Y872972*
X516341Y872942*
X516339Y872912*
X516337Y872881*
X516334Y872851*
X516331Y872821*
X516327Y872791*
X516322Y872761*
X516317Y872730*
X516311Y872700*
X516304Y872669*
X516296Y872638*
X516286Y872606*
X516275Y872574*
X516263Y872541*
X516250Y872507*
X516236Y872474*
X516221Y872439*
X516204Y872404*
X516190Y872377*
X516176Y872350*
X516160Y872322*
X516144Y872293*
X516126Y872264*
X516108Y872234*
X516089Y872204*
X516069Y872174*
X516048Y872143*
X516026Y872112*
X516003Y872080*
X515979Y872048*
X515955Y872015*
X515935Y871989*
X515915Y871963*
X515894Y871937*
X515872Y871910*
X515850Y871883*
X515826Y871855*
X515802Y871827*
X515778Y871799*
X515752Y871769*
X515726Y871740*
X515699Y871710*
X515671Y871680*
X515643Y871649*
X515614Y871617*
X515584Y871586*
X515553Y871554*
X515522Y871521*
X515024Y870997*
X516389Y870997*
X516427Y870986*
X516458Y870953*
X516478Y870897*
X516482Y870861*
X516484Y870820*
G37*
X516482Y870778*
X516478Y870741*
X516470Y870709*
X516460Y870683*
X516431Y870648*
X516391Y870637*
X514643Y870637*
X514611Y870639*
X514583Y870646*
X514559Y870657*
X514539Y870674*
X514512Y870731*
X514506Y870772*
X514504Y870822*
X514504Y870853*
X514505Y870882*
X514507Y870908*
X514513Y870943*
X514524Y870973*
X514538Y871002*
X514555Y871030*
X514577Y871059*
X514604Y871090*
X515234Y871741*
X515256Y871765*
X515279Y871788*
X515300Y871811*
X515322Y871834*
X515343Y871857*
X515363Y871879*
X515383Y871901*
X515402Y871923*
X515421Y871944*
X515440Y871966*
X515458Y871987*
X515475Y872008*
X515492Y872028*
X515508Y872048*
X515524Y872068*
X515540Y872088*
X515555Y872108*
X515570Y872127*
X515584Y872146*
X515604Y872173*
X515623Y872200*
X515641Y872227*
X515659Y872253*
X515676Y872279*
X515693Y872304*
X515708Y872329*
X515723Y872354*
X515737Y872378*
X515751Y872402*
X515764Y872426*
X515776Y872449*
X515787Y872472*
X515802Y872504*
X515816Y872536*
X515829Y872567*
X515841Y872597*
X515851Y872627*
X515860Y872656*
X515869Y872684*
X515875Y872712*
X515882Y872748*
X515888Y872783*
X515893Y872816*
X515897Y872849*
X515900Y872879*
X515902Y872909*
X515903Y872937*
X515904Y872964*
X515902Y873006*
X515898Y873046*
X515891Y873085*
X515881Y873124*
X515869Y873161*
X515853Y873198*
X515835Y873232*
X515815Y873265*
X515792Y873296*
X515767Y873325*
X515739Y873352*
X515708Y873376*
X515675Y873399*
X515639Y873418*
X515600Y873436*
X515566Y873449*
X515530Y873459*
X515492Y873467*
X515453Y873473*
X515412Y873476*
X515369Y873477*
X515331Y873477*
X515295Y873475*
X515259Y873471*
X515224Y873467*
X515190Y873461*
X515157Y873454*
X515125Y873446*
X515094Y873436*
X515060Y873424*
X515027Y873412*
X514996Y873400*
X514965Y873387*
X514936Y873374*
X514908Y873361*
X514881Y873347*
X514851Y873331*
X514823Y873316*
X514797Y873301*
X514772Y873286*
X514749Y873272*
X514728Y873258*
X514705Y873243*
X514684Y873232*
X514666Y873224*
X514650Y873219*
X514636Y873217*
X514605Y873227*
X514582Y873259*
X514569Y873318*
X514565Y873359*
X514564Y873407*
X514564Y873441*
X514566Y873471*
X514575Y873517*
X514591Y873554*
X514630Y873597*
X514670Y873628*
X514731Y873668*
X514762Y873685*
X514795Y873703*
X514831Y873720*
X514870Y873738*
X514913Y873755*
X514944Y873767*
X514977Y873779*
X515010Y873789*
X515044Y873800*
X515079Y873810*
X515115Y873819*
X515152Y873828*
X515182Y873834*
X515211Y873839*
X515241Y873844*
X515271Y873848*
X515302Y873851*
X515333Y873854*
X515364Y873856*
X515396Y873857*
X515425Y873857*
X515453Y873856*
X515481Y873855*
X515508Y873854*
X515535Y873852*
X515561Y873850*
X515586Y873847*
X515611Y873844*
X515636Y873841*
X515660Y873837*
X515683Y873833*
X515706Y873828*
X515728Y873823*
X515750Y873818*
X515771Y873812*
X515791Y873806*
X515811Y873799*
X515838Y873789*
X515865Y873778*
X515890Y873766*
X515915Y873755*
X515938Y873743*
X515962Y873730*
X515984Y873717*
X516005Y873704*
X516026Y873690*
X516046Y873675*
X516065Y873661*
X516083Y873646*
X516101Y873630*
X516117Y873614*
X516137Y873594*
X516157Y873572*
X516175Y873550*
X516192Y873527*
X516209Y873504*
X516224Y873480*
X516239Y873456*
X516252Y873431*
X516265Y873405*
X516277Y873379*
X516287Y873352*
X516296Y873325*
X516304Y873298*
X516312Y873271*
X516318Y873244*
X516324Y873218*
X516329Y873191*
X516334Y873164*
X516337Y873138*
X516340Y873112*
X516342Y873085*
X516343Y873059*
X516344Y873033*
X516343Y873003*
X516343Y872972*
X516341Y872942*
X516339Y872912*
X516337Y872881*
X516334Y872851*
X516331Y872821*
X516327Y872791*
X516322Y872761*
X516317Y872730*
X516311Y872700*
X516304Y872669*
X516296Y872638*
X516286Y872606*
X516275Y872574*
X516263Y872541*
X516250Y872507*
X516236Y872474*
X516221Y872439*
X516204Y872404*
X516190Y872377*
X516176Y872350*
X516160Y872322*
X516144Y872293*
X516126Y872264*
X516108Y872234*
X516089Y872204*
X516069Y872174*
X516048Y872143*
X516026Y872112*
X516003Y872080*
X515979Y872048*
X515955Y872015*
X515935Y871989*
X515915Y871963*
X515894Y871937*
X515872Y871910*
X515850Y871883*
X515826Y871855*
X515802Y871827*
X515778Y871799*
X515752Y871769*
X515726Y871740*
X515699Y871710*
X515671Y871680*
X515643Y871649*
X515614Y871617*
X515584Y871586*
X515553Y871554*
X515522Y871521*
X515024Y870997*
X516389Y870997*
X516427Y870986*
X516458Y870953*
X516478Y870897*
X516482Y870861*
X516484Y870820*
D47*
X70604Y140307D02*
X70604Y150307*
X74771Y150307D01*
X76437Y149473*
X77271Y147807*
X77271Y144890*
X76437Y143223*
X74771Y142390*
X70604Y142390*
X72271Y142390D02*
X72271Y150307D01*
X80604Y142390D02*
X83937Y150307D01*
X87270Y142390*
X81854Y145307D02*
X86020Y145307D01*
X90603Y150307D02*
X97270Y150307D01*
X93937Y150307D02*
X93937Y142390D01*
X106436Y142390D02*
X100603Y142390D01*
X100603Y150307*
X106436Y150307*
X106436Y146557D02*
X100603Y146557D01*
X111853Y142390D02*
X111644Y142390D01*
X111644Y142807*
X111853Y142807*
X111853Y142390*
X111853Y146557D02*
X111644Y146557D01*
X111644Y146973*
X111853Y146973*
X111853Y146557*
D48*
X80804Y41797D02*
X80804Y48687*
X82182Y46718D01*
X89071Y46718*
X90449Y48687*
X90449Y54592*
X89071Y56561*
X82182Y56561*
X80804Y58529*
X80804Y63451*
X82182Y65419*
X89071Y65419*
X90449Y63451*
X99406Y46718D02*
X99062Y46718D01*
X99062Y47703*
X99406Y47703*
X99406Y46718*
X105607Y46718D02*
X105607Y65419D01*
X111808Y46718*
X118008Y65419*
X118008Y46718*
X124209Y46718D02*
X123865Y46718D01*
X123865Y47703*
X124209Y47703*
X124209Y46718*
X140056Y46718D02*
X130410Y46718D01*
X130410Y65419*
X140056Y65419*
X140056Y56561D02*
X130410Y56561D01*
X149012Y46718D02*
X148668Y46718D01*
X148668Y47703*
X149012Y47703*
X149012Y46718*
X164859Y46718D02*
X155213Y46718D01*
X155213Y65419*
X164859Y65419*
X164859Y56561D02*
X155213Y56561D01*
X173815Y46718D02*
X173471Y46718D01*
X173471Y47703*
X173815Y47703*
X173815Y46718*
D47*
X115880Y140307D02*
X117338Y142390*
X117338Y150307D01*
X116505Y148640*
X120879Y143223D02*
X121713Y142390D01*
X125879Y142390*
X126713Y143223*
X126713Y146140*
X125879Y146973*
X121713Y146973*
X120879Y146140*
X120879Y150307*
X126713Y150307*
X130879Y142390D02*
X137546Y150307D01*
X146712Y143223D02*
X145879Y142390D01*
X141712Y142390*
X140879Y143223*
X140879Y149473*
X141712Y150307*
X145879Y150307*
X146712Y149473*
X146712Y143223*
X140879Y143223D02*
X146712Y149473D01*
X150878Y143223D02*
X151712Y142390D01*
X155878Y142390*
X156712Y143223*
X156712Y146140*
X155878Y146973*
X151712Y146973*
X150878Y146140*
X150878Y150307*
X156712Y150307*
X160878Y142390D02*
X167545Y150307D01*
X172336Y142390D02*
X172336Y150307D01*
X171503Y148640*
X175878Y149473D02*
X176711Y150307D01*
X180878Y150307*
X181711Y149473*
X181711Y147807*
X180878Y146973*
X175878Y142390*
X181711Y142390*
D49*
X211304Y141297D02*
X211304Y155077*
X215897Y144168D01*
X220490Y155077*
X233121Y144168D02*
X225083Y144168D01*
X225083Y155077*
X233121Y155077*
X233121Y149909D02*
X225083Y149909D01*
X238862Y144168D02*
X238862Y155077D01*
X246900Y155077*
X248048Y153928*
X248048Y151058*
X246900Y149909*
X238862Y149909*
X245752Y149909D02*
X246900Y149909D01*
X248048Y144168*
X252641Y144168D02*
X252641Y155077D01*
X261828Y144168*
X261828Y155077*
X268717Y144168D02*
X268717Y155077D01*
X267569Y144168D02*
X269865Y144168D01*
X267569Y155077D02*
X269865Y155077D01*
X273310Y145316D02*
X274458Y144168D01*
X280200Y144168*
X281348Y145316*
X281348Y148761*
X280200Y149909*
X274458Y149909*
X273310Y151058*
X273310Y153928*
X274458Y155077*
X280200Y155077*
X281348Y153928*
X296276Y141297D02*
X308907Y144168*
X300869Y144168D01*
X300869Y155077*
X308907Y155077*
X308907Y149909D02*
X300869Y149909D01*
X314648Y144168D02*
X314648Y155077D01*
X322686Y155077*
X323834Y153928*
X323834Y151058*
X322686Y149909*
X314648Y149909*
X328427Y144168D02*
X333020Y155077D01*
X337613Y144168*
X330149Y148187D02*
X335891Y148187D01*
X342206Y144168D02*
X342206Y155077D01*
X350244Y155077*
X351393Y153928*
X351393Y151058*
X350244Y149909*
X342206Y149909*
X349096Y149909D02*
X350244Y149909D01*
X351393Y144168*
X360579Y148761D02*
X365172Y148761D01*
X365172Y145316*
X364023Y144168*
X357134Y144168*
X355985Y145316*
X355985Y153928*
X357134Y155077*
X364023Y155077*
X365172Y153928*
X369765Y144168D02*
X369765Y155077D01*
X378951Y144168*
X378951Y155077*
X391582Y144168D02*
X383544Y144168D01*
X383544Y155077*
X391582Y155077*
X391582Y149909D02*
X383544Y149909D01*
X406509Y141297D02*
X411102Y144168*
X411102Y155077D01*
X419140Y155077*
X419140Y149909D02*
X411102Y149909D01*
X424881Y144168D02*
X429475Y155077D01*
X434068Y144168*
X426604Y148187D02*
X432345Y148187D01*
X447847Y145316D02*
X446699Y144168D01*
X439809Y144168*
X438661Y145316*
X438661Y153928*
X439809Y155077*
X446699Y155077*
X447847Y153928*
X460478Y144168D02*
X452440Y144168D01*
X452440Y155077*
X460478Y155077*
X460478Y149909D02*
X452440Y149909D01*
X475405Y141297D02*
X482008Y144168*
X482008Y155077D01*
X480860Y152780*
X206657Y53154D02*
X206657Y56025*
X206657Y66934D01*
X211824Y56025*
X216992Y66934*
X216992Y56025*
X220436Y56025D02*
X220436Y66934D01*
X228474Y66934*
X229623Y65785*
X229623Y62914*
X228474Y61766*
X220436Y61766D02*
X228474Y61766D01*
X229623Y60618*
X229623Y57173*
X228474Y56025*
X220436Y56025*
X236225Y56025D02*
X236225Y66934D01*
X235077Y64637*
X249143Y57173D02*
X247995Y56025D01*
X242253Y56025*
X241105Y57173*
X241105Y65785*
X242253Y66934*
X247995Y66934*
X249143Y65785*
X249143Y57173*
X241105Y57173D02*
X249143Y65785D01*
X254884Y65785D02*
X256033Y66934D01*
X261774Y66934*
X262922Y65785*
X262922Y62914*
X261774Y61766*
X258329Y61766*
X261774Y61766*
X262922Y60618*
X262922Y57747*
X261774Y56025*
X256033Y56025*
X254884Y57173*
X268664Y57173D02*
X269812Y56025D01*
X275553Y56025*
X276702Y57173*
X276702Y61192*
X275553Y62340*
X269812Y62340*
X268664Y61192*
X268664Y66934*
X276702Y66934*
X282443Y56025D02*
X287036Y66934D01*
X291629Y56025*
X284165Y60044D02*
X289907Y60044D01*
X206657Y88587D02*
X206657Y92606*
X207805Y91458D01*
X213547Y91458*
X214695Y92606*
X214695Y96051*
X213547Y97199*
X207805Y97199*
X206657Y98348*
X206657Y101218*
X207805Y102367*
X213547Y102367*
X214695Y101218*
X220436Y102367D02*
X229623Y102367D01*
X225029Y102367D02*
X225029Y91458D01*
X234216Y91458D02*
X234216Y102367D01*
X239383Y91458*
X244550Y102367*
X244550Y91458*
X247995Y101218D02*
X249143Y102367D01*
X254884Y102367*
X256033Y101218*
X256033Y98348*
X254884Y97199*
X251440Y97199*
X254884Y97199*
X256033Y96051*
X256033Y93180*
X254884Y91458*
X249143Y91458*
X247995Y92606*
X261774Y101218D02*
X262922Y102367D01*
X268664Y102367*
X269812Y101218*
X269812Y98922*
X268664Y97773*
X261774Y91458*
X269812Y91458*
X275553Y91458D02*
X275553Y102367D01*
X283591Y102367*
X283591Y97199D02*
X275553Y97199D01*
X289332Y101218D02*
X290481Y102367D01*
X296222Y102367*
X297370Y101218*
X297370Y98348*
X296222Y97199*
X292777Y97199*
X296222Y97199*
X297370Y96051*
X297370Y93180*
X296222Y91458*
X290481Y91458*
X289332Y92606*
X304260Y97199D02*
X311150Y97199D01*
X316891Y102367D02*
X322632Y102367D01*
X324929Y101218*
X326077Y98922*
X326077Y94903*
X324929Y92606*
X322632Y91458*
X316891Y91458*
X319187Y91458D02*
X319187Y102367D01*
X332967Y91458D02*
X332967Y102367D01*
X331818Y91458D02*
X334115Y91458D01*
X331818Y102367D02*
X334115Y102367D01*
X337560Y92606D02*
X338708Y91458D01*
X344449Y91458*
X345598Y92606*
X345598Y96051*
X344449Y97199*
X338708Y97199*
X337560Y98348*
X337560Y101218*
X338708Y102367*
X344449Y102367*
X345598Y101218*
X360525Y92606D02*
X359377Y91458D01*
X352487Y91458*
X351339Y92606*
X351339Y101218*
X352487Y102367*
X359377Y102367*
X360525Y101218*
X374304Y93180D02*
X372582Y91458D01*
X366840Y91458*
X365118Y93180*
X365118Y100644*
X366840Y102367*
X372582Y102367*
X374304Y100644*
X374304Y93180*
X378897Y102367D02*
X383490Y91458D01*
X388084Y102367*
X400714Y91458D02*
X392676Y91458D01*
X392676Y102367*
X400714Y102367*
X400714Y97199D02*
X392676Y97199D01*
X406456Y91458D02*
X406456Y102367D01*
X414494Y102367*
X415642Y101218*
X415642Y98348*
X414494Y97199*
X406456Y97199*
X413345Y97199D02*
X414494Y97199D01*
X415642Y91458*
X420235Y102367D02*
X424828Y97199D01*
X429421Y102367*
X424828Y97199D02*
X424828Y91458D01*
M02*
