G70*
%FSLAX55Y55*%
%ADD11C,0.01000*%
%ADD12C,0.00800*%
%ADD13C,0.02000*%
%ADD14R,0.04331X0.03937*%
%ADD15R,0.04724X0.07480*%
%ADD16R,0.02606X0.03306*%
%ADD17R,0.01969X0.01378*%
%ADD18O,0.06706X0.00619*%
%ADD19O,0.06706X0.00606*%
%ADD20O,0.00619X0.06706*%
%ADD21O,0.00606X0.06706*%
%ADD22R,0.06606X0.06606*%
%ADD23C,0.06606*%
%ADD24R,0.03937X0.04331*%
%ADD25R,0.03306X0.02606*%
%ADD26C,0.05806*%
%ADD27R,0.06606X0.06606*%
%ADD28R,0.05906X0.08268*%
%ADD29O,0.03346X0.00787*%
%ADD30O,0.00787X0.03346*%
%ADD31O,0.01206X0.05606*%
%ADD32O,0.00406X0.05606*%
%ADD33O,0.05606X0.01206*%
%ADD34O,0.05606X0.00406*%
%ADD35R,0.02606X0.01206*%
%ADD36R,0.01606X0.08661*%
%ADD37R,0.07480X0.13386*%
%ADD38R,0.24016X0.04331*%
%ADD39C,0.03543*%
%ADD40R,0.01378X0.01969*%
%ADD41R,0.08110X0.05591*%
%AMUSER42*
21, 1, 0.04331, 0.03937, 0.0, 0.0, 225.000*%
%ADD42USER42*%
%AMUSER43*
21, 1, 0.04331, 0.03937, 0.0, 0.0, 135.000*%
%ADD43USER43*%
%ADD44R,0.03606X0.03106*%
%ADD45R,0.03937X0.05512*%
%ADD46C,0.01500*%
%ADD47C,0.02480*%
%ADD48C,0.01575*%
D11*
X285882Y503057D02*
X545725Y503057D01*
X545725Y884947*
X285882Y884947*
X285882Y503057*
D12*
G36*
X685804Y86797D02*
X708758Y86807D01*
X709804Y88897*
X700804Y97897*
X699604Y100597*
X699604Y103897*
X699904Y105097*
X701104Y107197*
X702304Y108397*
X703804Y109297*
X705604Y109897*
X707704Y110197*
X750304Y110197*
X747904Y103897*
X747604Y103597*
X737704Y103597*
X728104Y80797*
X721204Y80797*
X730504Y102697*
X730504Y103597*
X706804Y103597*
X706204Y103297*
X705904Y102697*
X705904Y101797*
X706204Y101497*
X714904Y93097*
X715804Y91597*
X716104Y90097*
X716404Y89797*
X716404Y87097*
G75*
G02X711604Y80797I-08949J01839*
G01X683404Y80797*
X683404Y81397*
X685504Y86497*
X685804Y86797*
G37*
X708758Y86807*
X709804Y88897*
X700804Y97897*
X699604Y100597*
X699604Y103897*
X699904Y105097*
X701104Y107197*
X702304Y108397*
X703804Y109297*
X705604Y109897*
X707704Y110197*
X750304Y110197*
X747904Y103897*
X747604Y103597*
X737704Y103597*
X728104Y80797*
X721204Y80797*
X730504Y102697*
X730504Y103597*
X706804Y103597*
X706204Y103297*
X705904Y102697*
X705904Y101797*
X706204Y101497*
X714904Y93097*
X715804Y91597*
X716104Y90097*
X716404Y89797*
X716404Y87097*
G75*
G02X711604Y80797I-08949J01839*
G01X683404Y80797*
X683404Y81397*
X685504Y86497*
X685804Y86797*
X202051Y49689D02*
X632051Y49689D01*
D13*
X197051Y129689D02*
X637051Y129689D01*
X67050Y29689D02*
X187051Y29689D01*
D12*
X202051Y84689D02*
X632051Y84689D01*
D13*
X197051Y119689D02*
X637051Y119689D01*
D12*
X684004Y80197D02*
X683404Y80797D01*
X683404Y81397*
X695404Y110497*
G75*
G02X702004Y115597I08543J-04235*
G01X751804Y115597*
X752104Y115297*
X752104Y114097*
X740104Y85297*
G75*
G02X733504Y80197I-08825J04600*
G01X684004Y80197*
D13*
X637051Y129689D02*
X637051Y169689D01*
X57051Y179689D02*
X807051Y179689D01*
X67050Y124689D02*
X187051Y124689D01*
X67050Y169689D02*
X187051Y169689D01*
X197051Y169689D02*
X637051Y169689D01*
X197051Y29689D02*
X197051Y119689D01*
X197051Y129689D02*
X197051Y169689D01*
X67050Y29689D02*
X67050Y169689D01*
X637051Y29689D02*
X637051Y119689D01*
X647051Y169689D02*
X797051Y169689D01*
X647051Y29689D02*
X797051Y29689D01*
X19649Y19689D02*
X19649Y1149611D01*
X19649Y19689D02*
X807051Y19689D01*
X57051Y19689D02*
X57051Y179689D01*
X187051Y29689D02*
X187051Y169689D01*
X647051Y29689D02*
X647051Y169689D01*
X797051Y29689D02*
X797051Y169689D01*
X67050Y79689D02*
X187051Y79689D01*
X807051Y19689D02*
X807051Y1149611D01*
X197051Y29689D02*
X637051Y29689D01*
X19649Y1149611D02*
X807051Y1149611D01*
D14*
X514804Y761451D03*
X514804Y768144D03*
D15*
X457477Y748648D03*
X479130Y748648D03*
X479130Y761246D03*
X457477Y761246D03*
D16*
X395804Y844809D03*
X395804Y840085D03*
X348304Y809159D03*
X348304Y804435D03*
D14*
X524804Y761451D03*
X524804Y768144D03*
D17*
X326304Y841797D03*
X335304Y841797D03*
D18*
X388481Y818274D03*
D19*
X388481Y816305D03*
X388481Y814337D03*
X388481Y812368D03*
X388481Y810400D03*
X388481Y808431D03*
X388481Y806463D03*
X388481Y804494D03*
X388481Y802526D03*
X388481Y800557D03*
X388481Y798589D03*
D18*
X388481Y796620D03*
D20*
X394977Y790124D03*
D21*
X396945Y790124D03*
X398914Y790124D03*
X400882Y790124D03*
X402851Y790124D03*
X404819Y790124D03*
X406788Y790124D03*
X408756Y790124D03*
X410725Y790124D03*
X412693Y790124D03*
X414662Y790124D03*
D20*
X416630Y790124D03*
D18*
X423126Y796620D03*
D19*
X423126Y798589D03*
X423126Y800557D03*
X423126Y802526D03*
X423126Y804494D03*
X423126Y806463D03*
X423126Y808431D03*
X423126Y810400D03*
X423126Y812368D03*
X423126Y814337D03*
X423126Y816305D03*
D18*
X423127Y818274D03*
D20*
X416630Y824770D03*
D21*
X414662Y824770D03*
X412693Y824770D03*
X410725Y824770D03*
X408756Y824770D03*
X406788Y824770D03*
X404819Y824770D03*
X402851Y824770D03*
X400882Y824770D03*
X398914Y824770D03*
X396945Y824770D03*
D20*
X394977Y824770D03*
D22*
X310804Y841797D03*
D23*
X310804Y831797D03*
X310804Y821797D03*
X310804Y811797D03*
X310804Y801797D03*
X310804Y791797D03*
D14*
X445304Y746144D03*
X445304Y739451D03*
X503804Y774951D03*
X503804Y781644D03*
D16*
X365804Y646659D03*
X365804Y641935D03*
D14*
X355804Y720794D03*
X355804Y714101D03*
D16*
X348304Y819435D03*
X348304Y824159D03*
D24*
X416891Y640733D03*
X410198Y640733D03*
D25*
X395666Y832447D03*
X390941Y832447D03*
D14*
X358304Y640951D03*
X358304Y647644D03*
D26*
X363323Y804911D03*
X363323Y824911D03*
D25*
X323441Y801797D03*
X328166Y801797D03*
D22*
X310804Y871797D03*
D23*
X310804Y861797D03*
D16*
X420804Y844809D03*
X420804Y840085D03*
X390804Y844809D03*
X390804Y840085D03*
D24*
X416891Y648233D03*
X410198Y648233D03*
D16*
X415804Y844809D03*
X415804Y840085D03*
D25*
X323441Y811797D03*
X328166Y811797D03*
X535166Y779297D03*
X530441Y779297D03*
D16*
X430804Y819809D03*
X430804Y815085D03*
X458304Y642585D03*
X458304Y647309D03*
D27*
X340804Y784297D03*
D23*
X350804Y784297D03*
D24*
X457457Y769947D03*
X464150Y769947D03*
D25*
X323441Y831797D03*
X328166Y831797D03*
D14*
X430804Y739451D03*
X430804Y746144D03*
D28*
X370193Y756797D03*
X356414Y756797D03*
D16*
X405804Y844809D03*
X405804Y840085D03*
X410804Y844809D03*
X410804Y840085D03*
D25*
X440941Y762447D03*
X445666Y762447D03*
D16*
X400804Y844809D03*
X400804Y840085D03*
D25*
X323441Y791797D03*
X328166Y791797D03*
D14*
X450804Y660794D03*
X450804Y654101D03*
X333304Y864101D03*
X333304Y870794D03*
D25*
X328441Y854947D03*
X333166Y854947D03*
D16*
X348304Y754159D03*
X348304Y749435D03*
X358304Y656935D03*
X358304Y661659D03*
D14*
X363304Y720644D03*
X363304Y713951D03*
D29*
X521528Y776423D03*
X521528Y779573D03*
X521528Y782722D03*
X521528Y785872D03*
X521528Y789022D03*
X521528Y792171D03*
D30*
X516804Y792959D03*
D29*
X512079Y792171D03*
X512079Y789022D03*
X512079Y785872D03*
X512079Y782722D03*
X512079Y779573D03*
X512079Y776423D03*
D30*
X516804Y775636D03*
D25*
X340941Y841797D03*
X345666Y841797D03*
D14*
X450804Y648294D03*
X450804Y641601D03*
D22*
X310804Y751797D03*
D23*
X320804Y751797D03*
X310804Y741797D03*
X320804Y741797D03*
X310804Y731797D03*
X320804Y731797D03*
X310804Y721797D03*
X320804Y721797D03*
X310804Y711797D03*
X320804Y711797D03*
X310804Y701797D03*
X320804Y701797D03*
X310804Y691797D03*
X320804Y691797D03*
X310804Y681797D03*
X320804Y681797D03*
X310804Y671797D03*
X320804Y671797D03*
X310804Y661797D03*
X320804Y661797D03*
X310804Y651797D03*
X320804Y651797D03*
X310804Y641797D03*
X320804Y641797D03*
X310804Y631797D03*
X320804Y631797D03*
X310804Y621797D03*
X320804Y621797D03*
X310804Y611797D03*
X320804Y611797D03*
X310804Y601797D03*
X320804Y601797D03*
X310804Y591797D03*
X320804Y591797D03*
X310804Y581797D03*
X320804Y581797D03*
X310804Y571797D03*
X320804Y571797D03*
X310804Y561797D03*
X320804Y561797D03*
X310804Y551797D03*
X320804Y551797D03*
X310804Y541797D03*
X320804Y541797D03*
X310804Y531797D03*
X320804Y531797D03*
X310804Y521797D03*
X320804Y521797D03*
X310804Y511797D03*
X320804Y511797D03*
D14*
X383304Y760144D03*
X383304Y753451D03*
D22*
X473304Y817447D03*
D23*
X473304Y807447D03*
X473304Y797447D03*
X473304Y787447D03*
D22*
X310804Y766797D03*
D23*
X310804Y776797D03*
D24*
X517457Y801297D03*
X524150Y801297D03*
D14*
X383304Y745144D03*
X383304Y738451D03*
D29*
X411458Y627071D03*
X411458Y624512D03*
X411458Y621953D03*
X411458Y619394D03*
D30*
X414706Y616146D03*
X417265Y616146D03*
X419824Y616146D03*
X422383Y616146D03*
D29*
X425631Y619394D03*
X425631Y621953D03*
X425631Y624512D03*
X425631Y627071D03*
D30*
X422383Y630319D03*
X419824Y630319D03*
X417265Y630319D03*
X414706Y630319D03*
D16*
X340815Y865085D03*
X340815Y869809D03*
D22*
X510804Y751797D03*
D23*
X520804Y751797D03*
X510804Y741797D03*
X520804Y741797D03*
X510804Y731797D03*
X520804Y731797D03*
X510804Y721797D03*
X520804Y721797D03*
X510804Y711797D03*
X520804Y711797D03*
X510804Y701797D03*
X520804Y701797D03*
X510804Y691797D03*
X520804Y691797D03*
X510804Y681797D03*
X520804Y681797D03*
X510804Y671797D03*
X520804Y671797D03*
X510804Y661797D03*
X520804Y661797D03*
X510804Y651797D03*
X520804Y651797D03*
X510804Y641797D03*
X520804Y641797D03*
X510804Y631797D03*
X520804Y631797D03*
X510804Y621797D03*
X520804Y621797D03*
X510804Y611797D03*
X520804Y611797D03*
X510804Y601797D03*
X520804Y601797D03*
X510804Y591797D03*
X520804Y591797D03*
X510804Y581797D03*
X520804Y581797D03*
X510804Y571797D03*
X520804Y571797D03*
X510804Y561797D03*
X520804Y561797D03*
X510804Y551797D03*
X520804Y551797D03*
X510804Y541797D03*
X520804Y541797D03*
X510804Y531797D03*
X520804Y531797D03*
X510804Y521797D03*
X520804Y521797D03*
X510804Y511797D03*
X520804Y511797D03*
D31*
X438595Y725507D03*
D32*
X436233Y725507D03*
X434264Y725507D03*
X432296Y725507D03*
X430327Y725507D03*
X428359Y725507D03*
X426390Y725507D03*
X424421Y725507D03*
X422453Y725507D03*
X420484Y725507D03*
X418516Y725507D03*
X416547Y725507D03*
X414579Y725507D03*
X412610Y725507D03*
X410642Y725507D03*
X408673Y725507D03*
X406705Y725507D03*
X404736Y725507D03*
X402768Y725507D03*
X400799Y725507D03*
X398831Y725507D03*
X396862Y725507D03*
X394894Y725507D03*
X392925Y725507D03*
D31*
X390563Y725507D03*
D33*
X383280Y718223D03*
D34*
X383280Y715861D03*
X383280Y713893D03*
X383280Y711924D03*
X383280Y709956D03*
X383280Y707987D03*
X383280Y706019D03*
X383280Y704050D03*
X383280Y702081D03*
X383280Y700113D03*
X383280Y698144D03*
X383280Y696176D03*
X383280Y694207D03*
X383280Y692239D03*
X383280Y690270D03*
X383280Y688302D03*
X383280Y686333D03*
X383280Y684365D03*
X383280Y682396D03*
X383280Y680428D03*
X383280Y678459D03*
X383280Y676491D03*
X383280Y674522D03*
X383280Y672554D03*
D33*
X383280Y670192D03*
D31*
X390563Y662908D03*
D32*
X392925Y662908D03*
X394894Y662908D03*
X396862Y662908D03*
X398831Y662908D03*
X400799Y662908D03*
X402768Y662908D03*
X404736Y662908D03*
X406705Y662908D03*
X408673Y662908D03*
X410642Y662908D03*
X412610Y662908D03*
X414579Y662908D03*
X416547Y662908D03*
X418516Y662908D03*
X420484Y662908D03*
X422453Y662908D03*
X424421Y662908D03*
X426390Y662908D03*
X428359Y662908D03*
X430327Y662908D03*
X432296Y662908D03*
X434264Y662908D03*
X436233Y662908D03*
D31*
X438595Y662908D03*
D33*
X445878Y670192D03*
D34*
X445878Y672554D03*
X445878Y674522D03*
X445878Y676491D03*
X445878Y678459D03*
X445878Y680428D03*
X445878Y682396D03*
X445878Y684365D03*
X445878Y686333D03*
X445878Y688302D03*
X445878Y690270D03*
X445878Y692239D03*
X445878Y694207D03*
X445878Y696176D03*
X445878Y698144D03*
X445878Y700113D03*
X445878Y702081D03*
X445878Y704050D03*
X445878Y706019D03*
X445878Y707987D03*
X445878Y709956D03*
X445878Y711924D03*
X445878Y713893D03*
X445878Y715861D03*
D33*
X445878Y718223D03*
D22*
X520804Y821797D03*
D23*
X520804Y811797D03*
D24*
X452422Y836785D03*
X459115Y836785D03*
D35*
X461083Y860561D03*
X461083Y864301D03*
X461083Y868041D03*
X450453Y868041D03*
X450453Y860561D03*
D24*
X459115Y854285D03*
X452422Y854285D03*
D14*
X478304Y865144D03*
X478304Y858451D03*
D24*
X459115Y874317D03*
X452422Y874317D03*
D14*
X470792Y865144D03*
X470792Y858451D03*
D17*
X456276Y846774D03*
X465276Y846774D03*
D16*
X495804Y846659D03*
X495804Y841935D03*
X500804Y846659D03*
X500804Y841935D03*
X510804Y846659D03*
X510804Y841935D03*
X505804Y846659D03*
X505804Y841935D03*
D36*
X422092Y858470D03*
X418942Y858470D03*
X415792Y858470D03*
X412642Y858470D03*
X409492Y858470D03*
D37*
X396699Y858274D03*
X396699Y877959D03*
X434888Y858274D03*
X434888Y877959D03*
D38*
X415804Y882486D03*
D39*
X424442Y869297D03*
X407142Y869297D03*
D40*
X518304Y846297D03*
X518304Y837297D03*
D17*
X431304Y844297D03*
X440304Y844297D03*
D40*
X525804Y837297D03*
X525804Y846297D03*
D41*
X447890Y630655D03*
X483717Y630655D03*
X447890Y612939D03*
X483717Y612939D03*
X383717Y612939D03*
X347890Y612939D03*
X383717Y630655D03*
X347890Y630655D03*
D14*
X374304Y670644D03*
X374304Y663951D03*
D24*
X457457Y739297D03*
X464150Y739297D03*
D26*
X400767Y759277D03*
X420767Y759277D03*
D24*
X431891Y640733D03*
X425198Y640733D03*
D25*
X440941Y753297D03*
X445666Y753297D03*
D16*
X368304Y781935D03*
X368304Y786659D03*
D14*
X366804Y670644D03*
X366804Y663951D03*
X343304Y855144D03*
X343304Y848451D03*
D16*
X363304Y786659D03*
X363304Y781935D03*
X468304Y701659D03*
X468304Y696935D03*
D28*
X370193Y741797D03*
X356414Y741797D03*
D16*
X463304Y701659D03*
X463304Y696935D03*
X428304Y791659D03*
X428304Y786935D03*
D14*
X418804Y739951D03*
X418804Y746644D03*
D25*
X535166Y784297D03*
X530441Y784297D03*
D14*
X458304Y660644D03*
X458304Y653951D03*
D16*
X433304Y791659D03*
X433304Y786935D03*
X363304Y850935D03*
X363304Y855659D03*
X354804Y869659D03*
X354804Y864935D03*
X412304Y740435D03*
X412304Y745159D03*
X403804Y740435D03*
X403804Y745159D03*
X437304Y739435D03*
X437304Y744159D03*
X368308Y850911D03*
X368308Y855636D03*
X376304Y782935D03*
X376304Y787659D03*
X378304Y805159D03*
X378304Y800435D03*
D14*
X397304Y739951D03*
X397304Y746644D03*
D16*
X381304Y782935D03*
X381304Y787659D03*
D42*
X432312Y540289D03*
X427579Y545021D03*
D14*
X415804Y533451D03*
X415804Y540144D03*
D43*
X399295Y540289D03*
X404028Y545021D03*
D24*
X439150Y556797D03*
X432457Y556797D03*
X447457Y556797D03*
X454150Y556797D03*
D42*
X399295Y573306D03*
X404028Y568573D03*
D24*
X392457Y556797D03*
X399150Y556797D03*
D14*
X415804Y525144D03*
X415804Y518451D03*
D24*
X384150Y556797D03*
X377457Y556797D03*
D43*
X393421Y534415D03*
X388689Y529682D03*
D42*
X393421Y579180D03*
X388689Y583912D03*
X438186Y534415D03*
X442919Y529682D03*
D43*
X432312Y573306D03*
X427579Y568573D03*
X438186Y579180D03*
X442919Y583912D03*
D14*
X415804Y580144D03*
X415804Y573451D03*
X415804Y588451D03*
X415804Y595144D03*
D44*
X340804Y754797D03*
X340804Y748797D03*
D45*
X368756Y874203D03*
X368756Y862392D03*
X362851Y862392D03*
X362851Y874203D03*
D36*
X514592Y858470D03*
X511442Y858470D03*
X508292Y858470D03*
X505142Y858470D03*
X501992Y858470D03*
D37*
X489199Y858274D03*
X489199Y877959D03*
X527388Y858274D03*
X527388Y877959D03*
D38*
X508304Y882486D03*
D39*
X516942Y869297D03*
X499642Y869297D03*
D46*
X70604Y140307D02*
X70604Y150307*
X74771Y150307D01*
X76437Y149473*
X77271Y147807*
X77271Y144890*
X76437Y143223*
X74771Y142390*
X70604Y142390*
X72271Y142390D02*
X72271Y150307D01*
X80604Y142390D02*
X83937Y150307D01*
X87270Y142390*
X81854Y145307D02*
X86020Y145307D01*
X90603Y150307D02*
X97270Y150307D01*
X93937Y150307D02*
X93937Y142390D01*
X106436Y142390D02*
X100603Y142390D01*
X100603Y150307*
X106436Y150307*
X106436Y146557D02*
X100603Y146557D01*
X111853Y142390D02*
X111644Y142390D01*
X111644Y142807*
X111853Y142807*
X111853Y142390*
X111853Y146557D02*
X111644Y146557D01*
X111644Y146973*
X111853Y146973*
X111853Y146557*
D47*
X80804Y41797D02*
X80804Y48687*
X82182Y46718D01*
X89071Y46718*
X90449Y48687*
X90449Y54592*
X89071Y56561*
X82182Y56561*
X80804Y58529*
X80804Y63451*
X82182Y65419*
X89071Y65419*
X90449Y63451*
X99406Y46718D02*
X99062Y46718D01*
X99062Y47703*
X99406Y47703*
X99406Y46718*
X105607Y46718D02*
X105607Y65419D01*
X111808Y46718*
X118008Y65419*
X118008Y46718*
X124209Y46718D02*
X123865Y46718D01*
X123865Y47703*
X124209Y47703*
X124209Y46718*
X140056Y46718D02*
X130410Y46718D01*
X130410Y65419*
X140056Y65419*
X140056Y56561D02*
X130410Y56561D01*
X149012Y46718D02*
X148668Y46718D01*
X148668Y47703*
X149012Y47703*
X149012Y46718*
X164859Y46718D02*
X155213Y46718D01*
X155213Y65419*
X164859Y65419*
X164859Y56561D02*
X155213Y56561D01*
X173815Y46718D02*
X173471Y46718D01*
X173471Y47703*
X173815Y47703*
X173815Y46718*
D46*
X115880Y140307D02*
X117338Y142390*
X117338Y150307D01*
X116505Y148640*
X120879Y143223D02*
X121713Y142390D01*
X125879Y142390*
X126713Y143223*
X126713Y146140*
X125879Y146973*
X121713Y146973*
X120879Y146140*
X120879Y150307*
X126713Y150307*
X130879Y142390D02*
X137546Y150307D01*
X146712Y143223D02*
X145879Y142390D01*
X141712Y142390*
X140879Y143223*
X140879Y149473*
X141712Y150307*
X145879Y150307*
X146712Y149473*
X146712Y143223*
X140879Y143223D02*
X146712Y149473D01*
X150878Y143223D02*
X151712Y142390D01*
X155878Y142390*
X156712Y143223*
X156712Y146140*
X155878Y146973*
X151712Y146973*
X150878Y146140*
X150878Y150307*
X156712Y150307*
X160878Y142390D02*
X167545Y150307D01*
X172336Y142390D02*
X172336Y150307D01*
X171503Y148640*
X175878Y149473D02*
X176711Y150307D01*
X180878Y150307*
X181711Y149473*
X181711Y147807*
X180878Y146973*
X175878Y142390*
X181711Y142390*
D48*
X206657Y53154D02*
X206657Y56025*
X206657Y66934D01*
X211824Y56025*
X216992Y66934*
X216992Y56025*
X220436Y56025D02*
X220436Y66934D01*
X228474Y66934*
X229623Y65785*
X229623Y62914*
X228474Y61766*
X220436Y61766D02*
X228474Y61766D01*
X229623Y60618*
X229623Y57173*
X228474Y56025*
X220436Y56025*
X236225Y56025D02*
X236225Y66934D01*
X235077Y64637*
X249143Y57173D02*
X247995Y56025D01*
X242253Y56025*
X241105Y57173*
X241105Y65785*
X242253Y66934*
X247995Y66934*
X249143Y65785*
X249143Y57173*
X241105Y57173D02*
X249143Y65785D01*
X254884Y65785D02*
X256033Y66934D01*
X261774Y66934*
X262922Y65785*
X262922Y62914*
X261774Y61766*
X258329Y61766*
X261774Y61766*
X262922Y60618*
X262922Y57747*
X261774Y56025*
X256033Y56025*
X254884Y57173*
X268664Y57173D02*
X269812Y56025D01*
X275553Y56025*
X276702Y57173*
X276702Y61192*
X275553Y62340*
X269812Y62340*
X268664Y61192*
X268664Y66934*
X276702Y66934*
X282443Y56025D02*
X287036Y66934D01*
X291629Y56025*
X284165Y60044D02*
X289907Y60044D01*
X206657Y88587D02*
X206657Y92606*
X207805Y91458D01*
X213547Y91458*
X214695Y92606*
X214695Y96051*
X213547Y97199*
X207805Y97199*
X206657Y98348*
X206657Y101218*
X207805Y102367*
X213547Y102367*
X214695Y101218*
X220436Y102367D02*
X229623Y102367D01*
X225029Y102367D02*
X225029Y91458D01*
X234216Y91458D02*
X234216Y102367D01*
X239383Y91458*
X244550Y102367*
X244550Y91458*
X247995Y101218D02*
X249143Y102367D01*
X254884Y102367*
X256033Y101218*
X256033Y98348*
X254884Y97199*
X251440Y97199*
X254884Y97199*
X256033Y96051*
X256033Y93180*
X254884Y91458*
X249143Y91458*
X247995Y92606*
X261774Y101218D02*
X262922Y102367D01*
X268664Y102367*
X269812Y101218*
X269812Y98922*
X268664Y97773*
X261774Y91458*
X269812Y91458*
X275553Y91458D02*
X275553Y102367D01*
X283591Y102367*
X283591Y97199D02*
X275553Y97199D01*
X289332Y101218D02*
X290481Y102367D01*
X296222Y102367*
X297370Y101218*
X297370Y98348*
X296222Y97199*
X292777Y97199*
X296222Y97199*
X297370Y96051*
X297370Y93180*
X296222Y91458*
X290481Y91458*
X289332Y92606*
X304260Y97199D02*
X311150Y97199D01*
X316891Y102367D02*
X322632Y102367D01*
X324929Y101218*
X326077Y98922*
X326077Y94903*
X324929Y92606*
X322632Y91458*
X316891Y91458*
X319187Y91458D02*
X319187Y102367D01*
X332967Y91458D02*
X332967Y102367D01*
X331818Y91458D02*
X334115Y91458D01*
X331818Y102367D02*
X334115Y102367D01*
X337560Y92606D02*
X338708Y91458D01*
X344449Y91458*
X345598Y92606*
X345598Y96051*
X344449Y97199*
X338708Y97199*
X337560Y98348*
X337560Y101218*
X338708Y102367*
X344449Y102367*
X345598Y101218*
X360525Y92606D02*
X359377Y91458D01*
X352487Y91458*
X351339Y92606*
X351339Y101218*
X352487Y102367*
X359377Y102367*
X360525Y101218*
X374304Y93180D02*
X372582Y91458D01*
X366840Y91458*
X365118Y93180*
X365118Y100644*
X366840Y102367*
X372582Y102367*
X374304Y100644*
X374304Y93180*
X378897Y102367D02*
X383490Y91458D01*
X388084Y102367*
X400714Y91458D02*
X392676Y91458D01*
X392676Y102367*
X400714Y102367*
X400714Y97199D02*
X392676Y97199D01*
X406456Y91458D02*
X406456Y102367D01*
X414494Y102367*
X415642Y101218*
X415642Y98348*
X414494Y97199*
X406456Y97199*
X413345Y97199D02*
X414494Y97199D01*
X415642Y91458*
X420235Y102367D02*
X424828Y97199D01*
X429421Y102367*
X424828Y97199D02*
X424828Y91458D01*
X205804Y136797D02*
X205804Y139668*
X205804Y150577D01*
X210971Y139668*
X216138Y150577*
X216138Y139668*
X219583Y139668D02*
X224176Y150577D01*
X228769Y139668*
X221305Y143687D02*
X227047Y143687D01*
X233362Y140816D02*
X234510Y139668D01*
X240252Y139668*
X241400Y140816*
X241400Y144261*
X240252Y145409*
X234510Y145409*
X233362Y146558*
X233362Y149428*
X234510Y150577*
X240252Y150577*
X241400Y149428*
X256328Y141964D02*
X254605Y139668D01*
X248864Y139668*
X247141Y141390*
X247141Y148854*
X248864Y150577*
X254605Y150577*
X256328Y148854*
X256328Y141390*
X254031Y140816D02*
X256328Y139094D01*
X260921Y150577D02*
X260921Y140816D01*
X262069Y139668*
X268959Y139668*
X270107Y140816*
X270107Y150577*
X282738Y139668D02*
X274700Y139668D01*
X274700Y150577*
X282738Y150577*
X282738Y145409D02*
X274700Y145409D01*
X297665Y136797D02*
X302258Y150577*
X308000Y150577D01*
X310296Y149428*
X311444Y147132*
X311444Y143113*
X310296Y140816*
X308000Y139668*
X302258Y139668*
X304555Y139668D02*
X304555Y150577D01*
X324075Y139668D02*
X316037Y139668D01*
X316037Y150577*
X324075Y150577*
X324075Y145409D02*
X316037Y145409D01*
X339003Y136797D02*
X343596Y139668*
X343596Y150577D01*
X351634Y150577*
X352782Y149428*
X352782Y146558*
X351634Y145409*
X343596Y145409D02*
X351634Y145409D01*
X352782Y144261*
X352782Y140816*
X351634Y139668*
X343596Y139668*
X357375Y139668D02*
X357375Y150577D01*
X365413Y150577*
X366561Y149428*
X366561Y146558*
X365413Y145409*
X357375Y145409*
X364265Y145409D02*
X365413Y145409D01*
X366561Y139668*
X371154Y139668D02*
X375747Y150577D01*
X380341Y139668*
X372877Y143687D02*
X378618Y143687D01*
X384933Y140816D02*
X386082Y139668D01*
X391823Y139668*
X392971Y140816*
X392971Y144261*
X391823Y145409*
X386082Y145409*
X384933Y146558*
X384933Y149428*
X386082Y150577*
X391823Y150577*
X392971Y149428*
X398713Y139668D02*
X403306Y150577D01*
X407899Y139668*
X400435Y143687D02*
X406177Y143687D01*
X417085Y144261D02*
X421678Y144261D01*
X421678Y140816*
X420530Y139668*
X413640Y139668*
X412492Y140816*
X412492Y149428*
X413640Y150577*
X420530Y150577*
X421678Y149428*
X434309Y139668D02*
X426271Y139668D01*
X426271Y150577*
X434309Y150577*
X434309Y145409D02*
X426271Y145409D01*
X449237Y136797D02*
X453829Y139668*
X453829Y150577D01*
X461868Y150577*
X461868Y145409D02*
X453829Y145409D01*
X467609Y139668D02*
X472202Y150577D01*
X476795Y139668*
X469331Y143687D02*
X475073Y143687D01*
X490574Y140816D02*
X489426Y139668D01*
X482536Y139668*
X481388Y140816*
X481388Y149428*
X482536Y150577*
X489426Y150577*
X490574Y149428*
X503205Y139668D02*
X495167Y139668D01*
X495167Y150577*
X503205Y150577*
X503205Y145409D02*
X495167Y145409D01*
X518133Y136797D02*
X524735Y139668*
X524735Y150577D01*
X523587Y148280*
M02*
