M48
FMAT,2
T1C0.0118
T2C0.0276
T3C0.0394
%
T1
X00003343Y00005928
X00003388Y00005883
X00003418Y00005848
X00003448Y00005878
X00003518Y00006048
X00003628Y00006003
X00003663Y00006018
X00003688Y00005573
Y00006058
X00004078Y00005953
X00004198Y00006063
X00003528Y00006233
X00003583Y00006368
X00003628Y00006508
X00003688Y00006128
X00003801Y000064705
X00003815Y000065265
X00003829Y000064985
X00003834Y000065575
X00003836Y000064495
X00003878Y000064215
X00003908Y00006398
X000039534Y00006378
X00003977Y000064272
X00003988Y00006223
X00004038Y00006193
X00004043Y00006248
X00004138Y00006123
X00004168Y00006558
Y00006088
X00004173Y00006528
X00004258Y00006523
Y00006488
X00004333Y00006538
X00004343Y00006568
X00004428Y00006388
X00004683Y00006493
X00004693Y00006523
X00004793Y00006493
X00004818Y00006468
X00003353Y00007033
X00003403Y00007053
Y00007008
X00003558Y00007098
X00003583Y00006668
X00003623Y00006708
X00003846Y000065875
X00003918Y00006833
X00003938Y00006908
Y00006988
X00003943Y00006948
X00004013Y00006728
X00004028Y00006768
X00004053Y00007048
X00004088Y00007073
X00004168Y00006693
X00004198Y00006723
X00004248Y00006693
X00004298Y00006833
X00004348Y00007013
X00004363Y00006693
Y00006728
X00004383Y00006943
Y00006983
X00004453Y00006608
X00004458Y00006673
X000045043Y000066633
X00004523Y00006978
X000045437Y000066711
X00004548Y00007083
X00004568Y00006968
X000045751Y000066869
X00004578Y00007018
X000046066Y000067026
X00004646
X00004683Y000068364
X000046853Y000067026
X000046932Y000068049
X00004713Y00006718
X00004718Y00006748
Y00006968
Y00006843
Y000067813
X00004788Y00006828
X00003378Y00007108
X00003503Y00007418
X00003513Y00007573
X00003558Y00007253
X00003713
X00003833Y00007308
Y00007493
X00003898Y00007123
X00003918Y00007398
X00003923Y00007173
X00003943Y00007148
X00004013Y00007133
X00004023Y00007323
X00004038Y00007163
Y00007368
X00004053Y00007508
X00004063Y00007192
X00004088Y00007161
X00004113Y00007192
X00004116Y000071275
X00004123Y00007368
X00004143Y00007163
X00004168Y00007508
X00004183Y00007163
X00004208Y00007188
Y00007343
X00004243Y00007153
X00004268Y00007178
X00004283Y00007538
X00004303Y00007183
X00004308Y00007508
X00004333Y00007128
Y00007568
X00004348Y00007193
X00004423Y00007238
X00004493Y00007503
X00004503Y00007388
X00004513Y00007218
X00004578Y00007153
X00004588Y00007103
X00004633Y00007173
X000046415Y00007498
X00004693Y00007383
X00004978Y00007528
X00005013Y00007253
X00005028Y00007283
X00005033Y00007563
X00005058Y00007583
X00003218Y00007843
X00003263Y00007813
X00003323Y00008018
X00003393Y00008008
X00003428Y00008118
X00003478Y00007698
X00003683Y00007768
X00003713Y00007823
X00003723Y00007873
X00003738Y00007998
X00003783Y00008098
X00003818Y00007783
X00003833Y00007653
X00003853Y00007878
X00003908Y00007753
X00003938Y00008063
X00003958Y00007958
Y00008008
X00003988Y00007833
X00003993Y00008093
X00004018Y00007798
X00004023Y00008098
X00004063Y00007808
Y00007843
X00004068Y00007768
X00004083Y00008093
X000040876Y00007958
X00004173Y00008043
X00004188Y00007943
X00004218Y00007813
X00004243Y00007918
X00004283Y00007813
X00004288Y00008008
X00004298Y00008053
X00004363Y00007963
Y00007623
X00004688Y00007633
X00004893Y00007718
X00004938Y00007663
X00004988Y00007748
X00005263Y00007788
Y00007843
X00003323Y00008318
X00003388Y00008483
X00003503Y00008418
X00003638Y00008473
X00003783Y00008183
X00003788Y00008413
X00003873Y00008253
X00003958Y00008173
X00003983Y00008193
X00003998Y00008323
X00004053Y00008358
X00004068Y00008188
X00004088Y000083395
X00004143Y00008123
X00004173Y00008188
X00004298Y000082395
X00004418Y00008238
X000044414Y000082373
X000044572Y000081349
X00004458Y00008443
X00004648Y00008418
X00004708Y00008523
X00004888Y00008418
X00005318Y00008463
X00004783Y00008523
T2
X00003327Y00007418
X000040077Y000075928
X000042077
X000036332Y000080491
Y000082491
T3
X00003108Y00005218
Y00005118
X00003208Y00005218
Y00005118
X00005108Y00005218
Y00005118
X00005208Y00005218
Y00005118
X00003108Y00005518
Y00005418
Y00005318
Y00005818
Y00005718
Y00005618
X00003208Y00005418
Y00005318
Y00005518
Y00005718
Y00005618
Y00005818
X00005108Y00005318
Y00005518
Y00005418
Y00005618
Y00005818
Y00005718
X00005208Y00005518
Y00005418
Y00005318
Y00005818
Y00005718
Y00005618
X00003108Y00005918
Y00006318
Y00006218
Y00006118
Y00006018
X00003208
Y00005918
Y00006318
Y00006218
Y00006118
X00005108
Y00006018
Y00005918
Y00006318
Y00006218
X00005208
Y00006118
Y00006018
Y00005918
Y00006318
X00003108Y00006418
Y00006818
Y00006718
Y00006618
Y00006518
X00003208
Y00006418
Y00006818
Y00006718
Y00006618
X00005108
Y00006518
Y00006418
Y00006818
Y00006718
X00005208
Y00006618
Y00006518
Y00006418
Y00006818
X00003108Y00006918
Y00007318
Y00007218
Y00007118
Y00007018
X00003208
Y00006918
Y00007318
Y00007218
Y00007118
X00005108
Y00007018
Y00006918
Y00007318
Y00007218
X00005208
Y00007118
Y00007018
Y00006918
Y00007318
X00003108Y00008118
Y00007668
Y00008018
Y00007518
Y00007918
Y00007418
Y00007768
X00003208Y00007518
Y00007418
X00003408Y00007843
X00003508
X00004733Y000080745
Y000079745
Y000078745
X00005108Y00007518
Y00007418
X00005208Y00007518
Y00007418
Y00008118
X00003108Y00008218
Y00008618
Y00008418
Y00008318
X00004733Y000081745
X00005208Y00008218
X00003108Y00008718
M30
